%FSLAX25Y25*%
%MOIN*%
G70*
G01*
G75*
G04 Layer_Physical_Order=2*
G04 Layer_Color=16711680*
%ADD10R,0.05118X0.05906*%
%ADD11R,0.05118X0.03347*%
%ADD12R,0.06000X0.06000*%
%ADD13R,0.03347X0.05118*%
%ADD14R,0.02362X0.05118*%
%ADD15R,0.05906X0.05118*%
%ADD16C,0.02500*%
%ADD17C,0.10000*%
%ADD18C,0.01500*%
%ADD19O,0.07087X0.08661*%
%ADD20R,0.06000X0.06000*%
%ADD21C,0.06000*%
%ADD22C,0.07874*%
%ADD23R,0.07874X0.07874*%
%ADD24O,0.15748X0.07874*%
%ADD25O,0.07874X0.17716*%
%ADD26O,0.03000X0.07874*%
%ADD27R,0.06299X0.06299*%
%ADD28C,0.06299*%
%ADD29O,0.03000X0.07874*%
%ADD30C,0.07087*%
%ADD31R,0.05906X0.05906*%
%ADD32C,0.05906*%
%ADD33R,0.07284X0.07284*%
%ADD34C,0.07284*%
%ADD35R,0.06299X0.06299*%
%ADD36C,0.08661*%
%ADD37C,0.06496*%
%ADD38R,0.06496X0.06496*%
%ADD39R,0.06496X0.06496*%
%ADD40C,0.11811*%
%ADD41C,0.09843*%
%ADD42C,0.05000*%
%ADD43R,0.00787X0.00787*%
%ADD44C,0.08000*%
%ADD45C,0.00787*%
G36*
X145899Y109218D02*
X132884Y105965D01*
X129596Y109253D01*
X129787Y109714D01*
X145838D01*
X145899Y109218D01*
D02*
G37*
G36*
X128672Y110177D02*
X128481Y109714D01*
X112430D01*
X112369Y110211D01*
X125384Y113464D01*
X128672Y110177D01*
D02*
G37*
G36*
X132884Y113464D02*
X129596Y110177D01*
X129134Y110368D01*
Y126418D01*
X129630Y126479D01*
X132884Y113464D01*
D02*
G37*
G36*
X129134Y109061D02*
Y93011D01*
X128638Y92950D01*
X125384Y105965D01*
X128672Y109253D01*
X129134Y109061D01*
D02*
G37*
G36*
X124033Y97215D02*
X122600D01*
X122589Y103258D01*
X121078Y97215D01*
X119578D01*
X118067Y103258D01*
Y97215D01*
X116634D01*
Y104903D01*
X118956D01*
X120334Y99648D01*
X121700Y104903D01*
X124033D01*
Y97215D01*
D02*
G37*
G36*
X141533Y114715D02*
X140100D01*
X140089Y120758D01*
X138578Y114715D01*
X137078D01*
X135567Y120758D01*
Y114715D01*
X134134D01*
Y122403D01*
X136456D01*
X137833Y117148D01*
X139200Y122403D01*
X141533D01*
Y114715D01*
D02*
G37*
G36*
X598750Y148649D02*
X598302Y148428D01*
X598251Y148467D01*
X597286Y148866D01*
X596250Y149003D01*
X517500D01*
X516464Y148866D01*
X515499Y148467D01*
X514670Y147830D01*
X514034Y147001D01*
X514000Y146920D01*
X513500D01*
X513467Y147001D01*
X512830Y147830D01*
X512001Y148467D01*
X511036Y148866D01*
X510000Y149003D01*
X437500D01*
X436464Y148866D01*
X435499Y148467D01*
X434670Y147830D01*
X434625Y147772D01*
X434125D01*
X434080Y147830D01*
X433251Y148467D01*
X432286Y148866D01*
X431250Y149003D01*
X388001D01*
X387671Y149379D01*
X387753Y150000D01*
Y218750D01*
X387616Y219786D01*
X387216Y220751D01*
X386580Y221580D01*
X385751Y222217D01*
X385670Y222250D01*
Y222750D01*
X385751Y222783D01*
X386580Y223420D01*
X387216Y224249D01*
X387616Y225214D01*
X387753Y226250D01*
Y249287D01*
X388253Y249361D01*
X388410Y248842D01*
X389108Y247537D01*
X390047Y246393D01*
X391190Y245454D01*
X392495Y244757D01*
X393911Y244327D01*
X395384Y244182D01*
X396856Y244327D01*
X398272Y244757D01*
X399577Y245454D01*
X400721Y246393D01*
X401660Y247537D01*
X402357Y248842D01*
X402787Y250258D01*
X402932Y251730D01*
X402787Y253203D01*
X402357Y254619D01*
X401660Y255924D01*
X400721Y257068D01*
X399577Y258006D01*
X398272Y258704D01*
X396856Y259133D01*
X395384Y259278D01*
X393911Y259133D01*
X392495Y258704D01*
X391190Y258006D01*
X390047Y257068D01*
X389108Y255924D01*
X388410Y254619D01*
X388253Y254100D01*
X387753Y254174D01*
Y282500D01*
X387616Y283536D01*
X387216Y284501D01*
X386580Y285330D01*
X385751Y285966D01*
X385670Y286000D01*
Y286500D01*
X385751Y286533D01*
X386580Y287170D01*
X387216Y287999D01*
X387616Y288964D01*
X387753Y290000D01*
Y351250D01*
X387616Y352286D01*
X387216Y353251D01*
X386580Y354080D01*
X386034Y354500D01*
X386203Y355000D01*
X598750D01*
Y148649D01*
D02*
G37*
%LPC*%
G36*
X479625Y154000D02*
X476722D01*
X476728Y153956D01*
X477131Y152983D01*
X477772Y152147D01*
X478608Y151506D01*
X479581Y151103D01*
X479625Y151097D01*
Y154000D01*
D02*
G37*
G36*
X505625Y160000D02*
X495625D01*
Y150000D01*
X505625D01*
Y160000D01*
D02*
G37*
G36*
X494528Y154000D02*
X491625D01*
Y151097D01*
X491669Y151103D01*
X492642Y151506D01*
X493478Y152147D01*
X494119Y152983D01*
X494522Y153956D01*
X494528Y154000D01*
D02*
G37*
G36*
X585384Y259278D02*
X583911Y259133D01*
X582495Y258704D01*
X581190Y258006D01*
X580047Y257068D01*
X579108Y255924D01*
X578410Y254619D01*
X577981Y253203D01*
X577836Y251730D01*
X577981Y250258D01*
X578410Y248842D01*
X579108Y247537D01*
X580047Y246393D01*
X581190Y245454D01*
X582495Y244757D01*
X583911Y244327D01*
X585384Y244182D01*
X586856Y244327D01*
X588272Y244757D01*
X589577Y245454D01*
X590721Y246393D01*
X591660Y247537D01*
X592357Y248842D01*
X592787Y250258D01*
X592932Y251730D01*
X592787Y253203D01*
X592357Y254619D01*
X591660Y255924D01*
X590721Y257068D01*
X589577Y258006D01*
X588272Y258704D01*
X586856Y259133D01*
X585384Y259278D01*
D02*
G37*
G36*
X560625Y350043D02*
X559320Y349871D01*
X558103Y349367D01*
X557059Y348566D01*
X556257Y347522D01*
X555896Y346648D01*
X555354D01*
X554992Y347522D01*
X554191Y348566D01*
X553147Y349367D01*
X551930Y349871D01*
X550625Y350043D01*
X549320Y349871D01*
X548103Y349367D01*
X547059Y348566D01*
X546257Y347522D01*
X545896Y346648D01*
X545354D01*
X544992Y347522D01*
X544191Y348566D01*
X543147Y349367D01*
X541930Y349871D01*
X540625Y350043D01*
X539320Y349871D01*
X538103Y349367D01*
X537059Y348566D01*
X536258Y347522D01*
X535896Y346648D01*
X535354D01*
X534993Y347522D01*
X534191Y348566D01*
X533147Y349367D01*
X531930Y349871D01*
X530625Y350043D01*
X529320Y349871D01*
X528103Y349367D01*
X527059Y348566D01*
X526258Y347522D01*
X525896Y346648D01*
X525354D01*
X524993Y347522D01*
X524191Y348566D01*
X523147Y349367D01*
X521930Y349871D01*
X520625Y350043D01*
X519320Y349871D01*
X518103Y349367D01*
X517059Y348566D01*
X516257Y347522D01*
X515896Y346648D01*
X515354D01*
X514993Y347522D01*
X514191Y348566D01*
X513147Y349367D01*
X511930Y349871D01*
X510625Y350043D01*
X509320Y349871D01*
X508103Y349367D01*
X507059Y348566D01*
X506257Y347522D01*
X505896Y346648D01*
X505354D01*
X504992Y347522D01*
X504191Y348566D01*
X503147Y349367D01*
X501930Y349871D01*
X500625Y350043D01*
X499320Y349871D01*
X498103Y349367D01*
X497059Y348566D01*
X496257Y347522D01*
X495754Y346305D01*
X495582Y345000D01*
X495754Y343695D01*
X496257Y342478D01*
X497059Y341434D01*
X497347Y341213D01*
Y311732D01*
X489471Y303856D01*
X488884Y303976D01*
X488556Y304769D01*
X487903Y305620D01*
Y340000D01*
X489625D01*
Y350000D01*
X479625D01*
Y347301D01*
X479125Y347202D01*
X478993Y347522D01*
X478191Y348566D01*
X477147Y349367D01*
X475930Y349871D01*
X474625Y350043D01*
X473320Y349871D01*
X472103Y349367D01*
X471059Y348566D01*
X470258Y347522D01*
X469896Y346648D01*
X469354D01*
X468993Y347522D01*
X468191Y348566D01*
X467147Y349367D01*
X465930Y349871D01*
X464625Y350043D01*
X463320Y349871D01*
X462103Y349367D01*
X461059Y348566D01*
X460257Y347522D01*
X459896Y346648D01*
X459354D01*
X458992Y347522D01*
X458191Y348566D01*
X457147Y349367D01*
X455930Y349871D01*
X454625Y350043D01*
X453320Y349871D01*
X452103Y349367D01*
X451059Y348566D01*
X450257Y347522D01*
X449896Y346648D01*
X449354D01*
X448992Y347522D01*
X448191Y348566D01*
X447147Y349367D01*
X445930Y349871D01*
X444625Y350043D01*
X443320Y349871D01*
X442103Y349367D01*
X441059Y348566D01*
X440258Y347522D01*
X439896Y346648D01*
X439354D01*
X438993Y347522D01*
X438191Y348566D01*
X437147Y349367D01*
X435930Y349871D01*
X434625Y350043D01*
X433320Y349871D01*
X432103Y349367D01*
X431059Y348566D01*
X430258Y347522D01*
X429896Y346648D01*
X429354D01*
X428993Y347522D01*
X428191Y348566D01*
X427147Y349367D01*
X425930Y349871D01*
X424625Y350043D01*
X423320Y349871D01*
X422103Y349367D01*
X421059Y348566D01*
X420258Y347522D01*
X419896Y346648D01*
X419354D01*
X418993Y347522D01*
X418191Y348566D01*
X417147Y349367D01*
X415930Y349871D01*
X414625Y350043D01*
X413320Y349871D01*
X412103Y349367D01*
X411059Y348566D01*
X410257Y347522D01*
X409896Y346648D01*
X409354D01*
X408992Y347522D01*
X408191Y348566D01*
X407147Y349367D01*
X405930Y349871D01*
X404625Y350043D01*
X403320Y349871D01*
X402103Y349367D01*
X401059Y348566D01*
X400257Y347522D01*
X399896Y346648D01*
X399354D01*
X398992Y347522D01*
X398191Y348566D01*
X397147Y349367D01*
X395930Y349871D01*
X394625Y350043D01*
X393320Y349871D01*
X392103Y349367D01*
X391059Y348566D01*
X390258Y347522D01*
X389754Y346305D01*
X389582Y345000D01*
X389754Y343695D01*
X390258Y342478D01*
X391059Y341434D01*
X392103Y340633D01*
X393320Y340129D01*
X394625Y339957D01*
X395930Y340129D01*
X397147Y340633D01*
X398191Y341434D01*
X398992Y342478D01*
X399354Y343352D01*
X399896D01*
X400257Y342478D01*
X401059Y341434D01*
X402103Y340633D01*
X403320Y340129D01*
X404625Y339957D01*
X405930Y340129D01*
X407147Y340633D01*
X408191Y341434D01*
X408992Y342478D01*
X409354Y343352D01*
X409896D01*
X410257Y342478D01*
X411059Y341434D01*
X412103Y340633D01*
X413320Y340129D01*
X414625Y339957D01*
X415930Y340129D01*
X417147Y340633D01*
X418191Y341434D01*
X418993Y342478D01*
X419354Y343352D01*
X419896D01*
X420258Y342478D01*
X421059Y341434D01*
X422103Y340633D01*
X423320Y340129D01*
X424625Y339957D01*
X425930Y340129D01*
X427147Y340633D01*
X428191Y341434D01*
X428993Y342478D01*
X429354Y343352D01*
X429896D01*
X430258Y342478D01*
X431059Y341434D01*
X431722Y340925D01*
Y335620D01*
X431500Y335331D01*
X431000D01*
X430709Y335709D01*
X429769Y336431D01*
X428675Y336884D01*
X427500Y337039D01*
X426325Y336884D01*
X425231Y336431D01*
X424291Y335709D01*
X423569Y334769D01*
X423375Y334300D01*
X422875D01*
X422681Y334769D01*
X421959Y335709D01*
X421019Y336431D01*
X419925Y336884D01*
X418750Y337039D01*
X417575Y336884D01*
X416481Y336431D01*
X415541Y335709D01*
X414819Y334769D01*
X414366Y333675D01*
X414211Y332500D01*
X414366Y331325D01*
X414819Y330231D01*
X415541Y329291D01*
X416381Y328646D01*
X416337Y328244D01*
X416281Y328116D01*
X415231Y327681D01*
X414291Y326959D01*
X413569Y326019D01*
X413116Y324925D01*
X412961Y323750D01*
X413116Y322575D01*
X413569Y321481D01*
X414291Y320541D01*
X415231Y319819D01*
X416325Y319366D01*
X417388Y319226D01*
X419552Y317062D01*
X419269Y316638D01*
X418675Y316884D01*
X417500Y317039D01*
X416325Y316884D01*
X415231Y316431D01*
X414291Y315709D01*
X413569Y314769D01*
X413116Y313675D01*
X412961Y312500D01*
X413116Y311325D01*
X413569Y310231D01*
X414291Y309291D01*
X415231Y308569D01*
X416325Y308116D01*
X417388Y307976D01*
X417901Y307464D01*
X417679Y307015D01*
X417500Y307039D01*
X416325Y306884D01*
X415231Y306431D01*
X414291Y305709D01*
X413569Y304769D01*
X413116Y303675D01*
X412961Y302500D01*
X413116Y301325D01*
X413569Y300231D01*
X414291Y299291D01*
X415231Y298569D01*
X416325Y298116D01*
X417500Y297961D01*
X418675Y298116D01*
X419769Y298569D01*
X420620Y299222D01*
X436142D01*
X454114Y281250D01*
X438066Y265202D01*
X437545Y264523D01*
X437381Y264128D01*
X437218Y263732D01*
X437162Y263308D01*
X437106Y262884D01*
Y261814D01*
X436641Y261457D01*
X435800Y260361D01*
X435634Y259961D01*
X435134D01*
X434968Y260361D01*
X434127Y261457D01*
X433031Y262299D01*
X431754Y262827D01*
X430384Y263008D01*
X429014Y262827D01*
X427737Y262299D01*
X426641Y261457D01*
X425800Y260361D01*
X425271Y259085D01*
X425091Y257715D01*
X425271Y256345D01*
X425800Y255068D01*
X426641Y253972D01*
X427737Y253130D01*
X428138Y252964D01*
Y252465D01*
X427737Y252299D01*
X426641Y251458D01*
X425800Y250361D01*
X425271Y249084D01*
X425091Y247714D01*
X425271Y246344D01*
X425800Y245068D01*
X426641Y243972D01*
X427737Y243130D01*
X429014Y242602D01*
X430384Y242421D01*
X431754Y242602D01*
X433031Y243130D01*
X434127Y243972D01*
X434968Y245068D01*
X435134Y245468D01*
X435634D01*
X435800Y245068D01*
X436641Y243972D01*
X437737Y243130D01*
X439014Y242602D01*
X440384Y242421D01*
X441754Y242602D01*
X443031Y243130D01*
X444127Y243972D01*
X444968Y245068D01*
X445134Y245468D01*
X445634D01*
X445800Y245068D01*
X446641Y243972D01*
X447737Y243130D01*
X449014Y242602D01*
X450384Y242421D01*
X451754Y242602D01*
X453030Y243130D01*
X454127Y243972D01*
X454968Y245068D01*
X455134Y245468D01*
X455634D01*
X455800Y245068D01*
X456641Y243972D01*
X457106Y243615D01*
Y195492D01*
X448307Y186693D01*
X447786Y186014D01*
X447622Y185619D01*
X447459Y185223D01*
X447403Y184799D01*
X447347Y184375D01*
Y158787D01*
X447059Y158566D01*
X446257Y157522D01*
X445896Y156648D01*
X445354D01*
X444992Y157522D01*
X444191Y158566D01*
X443147Y159368D01*
X441930Y159871D01*
X440625Y160043D01*
X439320Y159871D01*
X438103Y159368D01*
X437059Y158566D01*
X436258Y157522D01*
X435896Y156648D01*
X435354D01*
X434993Y157522D01*
X434191Y158566D01*
X433147Y159368D01*
X431930Y159871D01*
X430625Y160043D01*
X429320Y159871D01*
X428103Y159368D01*
X427059Y158566D01*
X426258Y157522D01*
X425754Y156305D01*
X425582Y155000D01*
X425754Y153695D01*
X426258Y152478D01*
X427059Y151434D01*
X428103Y150633D01*
X429320Y150129D01*
X430625Y149957D01*
X431930Y150129D01*
X433147Y150633D01*
X434191Y151434D01*
X434993Y152478D01*
X435354Y153352D01*
X435896D01*
X436258Y152478D01*
X437059Y151434D01*
X438103Y150633D01*
X439320Y150129D01*
X440625Y149957D01*
X441930Y150129D01*
X443147Y150633D01*
X444191Y151434D01*
X444992Y152478D01*
X445354Y153352D01*
X445896D01*
X446257Y152478D01*
X447059Y151434D01*
X448103Y150633D01*
X449320Y150129D01*
X450625Y149957D01*
X451930Y150129D01*
X453147Y150633D01*
X454191Y151434D01*
X454992Y152478D01*
X455354Y153352D01*
X455896D01*
X456257Y152478D01*
X457059Y151434D01*
X458103Y150633D01*
X459320Y150129D01*
X460625Y149957D01*
X461930Y150129D01*
X463147Y150633D01*
X464191Y151434D01*
X464993Y152478D01*
X465354Y153352D01*
X465896D01*
X466257Y152478D01*
X467059Y151434D01*
X468103Y150633D01*
X469320Y150129D01*
X470625Y149957D01*
X471930Y150129D01*
X473147Y150633D01*
X474191Y151434D01*
X474993Y152478D01*
X475496Y153695D01*
X475668Y155000D01*
X475496Y156305D01*
X474993Y157522D01*
X474191Y158566D01*
X473903Y158787D01*
Y183017D01*
X482702Y191816D01*
X483223Y192495D01*
X483386Y192890D01*
X483550Y193285D01*
X483606Y193710D01*
X483662Y194134D01*
Y243615D01*
X484127Y243972D01*
X484968Y245068D01*
X485497Y246344D01*
X485636Y247402D01*
X486140D01*
X486245Y246606D01*
X486673Y245572D01*
X487347Y244694D01*
Y158278D01*
X482924D01*
X482642Y158494D01*
X481669Y158897D01*
X481625Y158903D01*
Y155000D01*
Y151097D01*
X481669Y151103D01*
X482642Y151506D01*
X482924Y151722D01*
X488326D01*
X488608Y151506D01*
X489581Y151103D01*
X489625Y151097D01*
Y155000D01*
X490625D01*
Y156000D01*
X494528D01*
X494522Y156044D01*
X494119Y157017D01*
X493903Y157299D01*
Y244437D01*
X497678D01*
X498242Y244004D01*
X499275Y243576D01*
X499384Y243562D01*
Y247714D01*
X501384D01*
Y243562D01*
X501493Y243576D01*
X502526Y244004D01*
X503414Y244685D01*
X504095Y245572D01*
X504523Y246606D01*
X504627Y247402D01*
X505132D01*
X505271Y246344D01*
X505800Y245068D01*
X506641Y243972D01*
X507106Y243615D01*
Y215866D01*
X507162Y215442D01*
X507218Y215018D01*
X507381Y214622D01*
X507545Y214227D01*
X508066Y213548D01*
X517347Y204267D01*
Y160000D01*
X515625D01*
Y150000D01*
X525625D01*
Y152699D01*
X526125Y152798D01*
X526258Y152478D01*
X527059Y151434D01*
X528103Y150633D01*
X529320Y150129D01*
X530625Y149957D01*
X531930Y150129D01*
X533147Y150633D01*
X534191Y151434D01*
X534993Y152478D01*
X535354Y153352D01*
X535896D01*
X536258Y152478D01*
X537059Y151434D01*
X538103Y150633D01*
X539320Y150129D01*
X540625Y149957D01*
X541930Y150129D01*
X543147Y150633D01*
X544191Y151434D01*
X544992Y152478D01*
X545354Y153352D01*
X545896D01*
X546257Y152478D01*
X547059Y151434D01*
X548103Y150633D01*
X549320Y150129D01*
X550625Y149957D01*
X551930Y150129D01*
X553147Y150633D01*
X554191Y151434D01*
X554992Y152478D01*
X555354Y153352D01*
X555896D01*
X556257Y152478D01*
X557059Y151434D01*
X558103Y150633D01*
X559320Y150129D01*
X560625Y149957D01*
X561930Y150129D01*
X563147Y150633D01*
X564191Y151434D01*
X564993Y152478D01*
X565354Y153352D01*
X565896D01*
X566257Y152478D01*
X567059Y151434D01*
X568103Y150633D01*
X569320Y150129D01*
X570625Y149957D01*
X571930Y150129D01*
X573147Y150633D01*
X574191Y151434D01*
X574993Y152478D01*
X575496Y153695D01*
X575668Y155000D01*
X575496Y156305D01*
X574993Y157522D01*
X574191Y158566D01*
X573147Y159368D01*
X571930Y159871D01*
X570625Y160043D01*
X569320Y159871D01*
X568103Y159368D01*
X567059Y158566D01*
X566257Y157522D01*
X565896Y156648D01*
X565354D01*
X564993Y157522D01*
X564191Y158566D01*
X563903Y158787D01*
Y205625D01*
X563847Y206049D01*
X563791Y206473D01*
X563628Y206869D01*
X563464Y207264D01*
X563169Y207648D01*
X562943Y207943D01*
X553662Y217224D01*
Y242466D01*
X555632D01*
Y252963D01*
X553633D01*
X553463Y253463D01*
X554127Y253972D01*
X554968Y255068D01*
X555497Y256345D01*
X555677Y257715D01*
X555497Y259085D01*
X554968Y260361D01*
X554127Y261457D01*
X553030Y262299D01*
X551754Y262827D01*
X550384Y263008D01*
X549014Y262827D01*
X547737Y262299D01*
X546641Y261457D01*
X545800Y260361D01*
X545634Y259961D01*
X545134D01*
X544968Y260361D01*
X544127Y261457D01*
X543031Y262299D01*
X541754Y262827D01*
X540384Y263008D01*
X539014Y262827D01*
X537737Y262299D01*
X536641Y261457D01*
X535800Y260361D01*
X535634Y259961D01*
X535134D01*
X534968Y260361D01*
X534127Y261457D01*
X533031Y262299D01*
X531754Y262827D01*
X530384Y263008D01*
X529014Y262827D01*
X527737Y262299D01*
X526641Y261457D01*
X525800Y260361D01*
X525634Y259961D01*
X525134D01*
X524968Y260361D01*
X524127Y261457D01*
X523031Y262299D01*
X521754Y262827D01*
X520384Y263008D01*
X519014Y262827D01*
X517737Y262299D01*
X516641Y261457D01*
X515800Y260361D01*
X515634Y259961D01*
X515134D01*
X514968Y260361D01*
X514127Y261457D01*
X513030Y262299D01*
X511754Y262827D01*
X510384Y263008D01*
X509014Y262827D01*
X507737Y262299D01*
X506641Y261457D01*
X505800Y260361D01*
X505634Y259961D01*
X505134D01*
X504968Y260361D01*
X504127Y261457D01*
X503030Y262299D01*
X501754Y262827D01*
X500384Y263008D01*
X499014Y262827D01*
X497737Y262299D01*
X496641Y261457D01*
X495800Y260361D01*
X495634Y259961D01*
X495134D01*
X494968Y260361D01*
X494127Y261457D01*
X493031Y262299D01*
X491754Y262827D01*
X490384Y263008D01*
X489014Y262827D01*
X487737Y262299D01*
X486641Y261457D01*
X485800Y260361D01*
X485634Y259961D01*
X485134D01*
X484968Y260361D01*
X484127Y261457D01*
X483031Y262299D01*
X481754Y262827D01*
X480384Y263008D01*
X479014Y262827D01*
X477737Y262299D01*
X476641Y261457D01*
X475800Y260361D01*
X475634Y259961D01*
X475134D01*
X474968Y260361D01*
X474127Y261457D01*
X473031Y262299D01*
X471754Y262827D01*
X470384Y263008D01*
X469014Y262827D01*
X467737Y262299D01*
X466641Y261457D01*
X465800Y260361D01*
X465634Y259961D01*
X465134D01*
X464968Y260361D01*
X464127Y261457D01*
X463030Y262299D01*
X461754Y262827D01*
X460384Y263008D01*
X459014Y262827D01*
X457737Y262299D01*
X456641Y261457D01*
X455800Y260361D01*
X455634Y259961D01*
X455134D01*
X454968Y260361D01*
X454127Y261457D01*
X453030Y262299D01*
X451754Y262827D01*
X450384Y263008D01*
X449014Y262827D01*
X447737Y262299D01*
X446641Y261457D01*
X445800Y260361D01*
X445634Y259961D01*
X445134D01*
X444968Y260361D01*
X444127Y261457D01*
X444126Y261458D01*
X444093Y261957D01*
X458858Y276722D01*
X495000D01*
X495424Y276778D01*
X495848Y276834D01*
X496244Y276997D01*
X496639Y277161D01*
X497318Y277682D01*
X552943Y333307D01*
X553464Y333986D01*
X553628Y334381D01*
X553791Y334777D01*
X553847Y335201D01*
X553903Y335625D01*
Y341213D01*
X554191Y341434D01*
X554992Y342478D01*
X555354Y343352D01*
X555896D01*
X556257Y342478D01*
X557059Y341434D01*
X558103Y340633D01*
X559320Y340129D01*
X560625Y339957D01*
X561930Y340129D01*
X563147Y340633D01*
X564191Y341434D01*
X564993Y342478D01*
X565125Y342798D01*
X565625Y342699D01*
Y340000D01*
X575625D01*
Y350000D01*
X565625D01*
Y347301D01*
X565125Y347202D01*
X564993Y347522D01*
X564191Y348566D01*
X563147Y349367D01*
X561930Y349871D01*
X560625Y350043D01*
D02*
G37*
G36*
X479625Y158903D02*
X479581Y158897D01*
X478608Y158494D01*
X477772Y157853D01*
X477131Y157017D01*
X476728Y156044D01*
X476722Y156000D01*
X479625D01*
Y158903D01*
D02*
G37*
G36*
X411306Y225087D02*
X410406Y224778D01*
X409692Y224147D01*
X409274Y223291D01*
X406129Y211378D01*
X394374Y208439D01*
X394126Y208322D01*
X393864Y208235D01*
X393769Y208153D01*
X393655Y208099D01*
X393470Y207895D01*
X393262Y207716D01*
X393233Y207660D01*
X392988Y207443D01*
X392570Y206588D01*
X392511Y205637D01*
X392821Y204736D01*
X393451Y204023D01*
X394307Y203605D01*
X396634Y202991D01*
Y190964D01*
X408594D01*
X409159Y188705D01*
X409277Y188456D01*
X409363Y188195D01*
X409445Y188100D01*
X409499Y187986D01*
X409703Y187801D01*
X409883Y187592D01*
X409939Y187564D01*
X410155Y187319D01*
X411011Y186901D01*
X411961Y186842D01*
X412862Y187152D01*
X413576Y187782D01*
X413994Y188638D01*
X417139Y200551D01*
X428893Y203490D01*
X429142Y203608D01*
X429403Y203694D01*
X429499Y203776D01*
X429613Y203830D01*
X429798Y204034D01*
X430006Y204213D01*
X430034Y204269D01*
X430279Y204486D01*
X430697Y205342D01*
X430756Y206292D01*
X430447Y207193D01*
X429816Y207906D01*
X428961Y208324D01*
X426533Y208965D01*
Y221153D01*
X414626D01*
X414108Y223224D01*
X413991Y223473D01*
X413905Y223734D01*
X413822Y223830D01*
X413768Y223943D01*
X413565Y224128D01*
X413385Y224337D01*
X413329Y224365D01*
X413112Y224610D01*
X412257Y225028D01*
X411306Y225087D01*
D02*
G37*
%LPD*%
G36*
X406533Y193465D02*
X405100D01*
X405089Y199508D01*
X403578Y193465D01*
X402078D01*
X400567Y199508D01*
Y193465D01*
X399134D01*
Y201153D01*
X401456D01*
X402834Y195898D01*
X404200Y201153D01*
X406533D01*
Y193465D01*
D02*
G37*
G36*
X424033Y210964D02*
X422600D01*
X422589Y217008D01*
X421078Y210964D01*
X419578D01*
X418067Y217008D01*
Y210964D01*
X416634D01*
Y218653D01*
X418956D01*
X420333Y213398D01*
X421700Y218653D01*
X424033D01*
Y210964D01*
D02*
G37*
G36*
X428399Y205468D02*
X415384Y202215D01*
X412096Y205503D01*
X412287Y205964D01*
X428338D01*
X428399Y205468D01*
D02*
G37*
G36*
X411634Y205311D02*
Y189261D01*
X411138Y189200D01*
X407884Y202215D01*
X411172Y205503D01*
X411634Y205311D01*
D02*
G37*
G36*
X415384Y209715D02*
X412096Y206427D01*
X411634Y206618D01*
Y222668D01*
X412130Y222729D01*
X415384Y209715D01*
D02*
G37*
G36*
X411172Y206427D02*
X410981Y205964D01*
X394930D01*
X394869Y206461D01*
X407884Y209715D01*
X411172Y206427D01*
D02*
G37*
D16*
X500625Y310374D02*
Y345000D01*
X487751Y297500D02*
X500625Y310374D01*
X462500Y297500D02*
X487751D01*
X510625Y315424D02*
Y345000D01*
X489201Y294000D02*
X510625Y315424D01*
X460849Y294000D02*
X489201D01*
X520625Y320474D02*
Y345000D01*
X490651Y290500D02*
X520625Y320474D01*
X459400Y290500D02*
X490651D01*
X530625Y325524D02*
Y345000D01*
X492100Y287000D02*
X530625Y325524D01*
X457950Y287000D02*
X492100D01*
X540625Y330575D02*
Y345000D01*
X493550Y283500D02*
X540625Y330575D01*
X456500Y283500D02*
X493550D01*
X550625Y335625D02*
Y345000D01*
X495000Y280000D02*
X550625Y335625D01*
X457500Y280000D02*
X495000D01*
X427500Y332500D02*
X462500Y297500D01*
X441849Y313000D02*
X460849Y294000D01*
X440400Y309500D02*
X459400Y290500D01*
X438950Y306000D02*
X457950Y287000D01*
X437500Y302500D02*
X456500Y283500D01*
X440384Y262884D02*
X457500Y280000D01*
X438250Y313000D02*
X441849D01*
X418750Y332500D02*
X438250Y313000D01*
X431750Y309500D02*
X440400D01*
X417500Y323750D02*
X431750Y309500D01*
X424000Y306000D02*
X438950D01*
X417500Y312500D02*
X424000Y306000D01*
X417500Y302500D02*
X437500D01*
X440384Y257715D02*
Y262884D01*
X484625Y302500D02*
Y345000D01*
X474625Y309125D02*
Y345000D01*
Y309125D02*
X475000Y308750D01*
X464625Y315375D02*
X465000Y315000D01*
X464625Y315375D02*
Y345000D01*
X454625D02*
X455000Y344625D01*
Y320000D02*
Y344625D01*
X444625Y326625D02*
X445000Y326250D01*
X444625Y326625D02*
Y345000D01*
X435000Y332500D02*
Y344625D01*
X450625Y155000D02*
Y184375D01*
X460384Y194134D01*
Y247714D01*
X460625Y155000D02*
Y184375D01*
X470384Y194134D01*
Y247714D01*
X480384Y194134D02*
Y247714D01*
X470625Y184375D02*
X480384Y194134D01*
X470625Y155000D02*
Y184375D01*
X480625Y155000D02*
X490625D01*
X490384Y247714D02*
X500384D01*
X490384D02*
X490625Y247473D01*
Y155000D02*
Y247473D01*
X510384Y215866D02*
Y247714D01*
Y215866D02*
X520625Y205625D01*
Y155000D02*
Y205625D01*
X520384Y215866D02*
Y247714D01*
Y215866D02*
X530625Y205625D01*
Y155000D02*
Y205625D01*
X530384Y215866D02*
Y247714D01*
Y215866D02*
X540625Y205625D01*
Y155000D02*
Y205625D01*
X540384Y215866D02*
Y247714D01*
Y215866D02*
X550625Y205625D01*
Y155000D02*
Y205625D01*
X560625Y155000D02*
Y205625D01*
X550384Y215866D02*
X560625Y205625D01*
X550384Y215866D02*
Y247714D01*
X104134Y217259D02*
Y253465D01*
X93125Y206250D02*
X104134Y217259D01*
X93125Y190625D02*
Y206250D01*
X80384Y162715D02*
Y172714D01*
Y152715D02*
Y162715D01*
X202785Y243464D02*
X207884D01*
X186536Y259715D02*
X202785Y243464D01*
X176634Y259715D02*
X186536D01*
X187884Y224714D02*
X191634Y228465D01*
X187884Y223464D02*
Y224714D01*
X191634Y228465D02*
X255384D01*
X180384Y239715D02*
X191634Y228465D01*
X180384Y239715D02*
Y253465D01*
X230384Y279714D02*
X241634Y268464D01*
X195384Y279714D02*
X230384D01*
X241634Y268464D02*
X256634Y283465D01*
X319134Y268464D02*
X325384Y274714D01*
Y280964D01*
X322884Y283465D02*
X325384Y280964D01*
X256634Y283465D02*
X322884D01*
X331634Y295965D02*
X360384Y324714D01*
X321634Y230964D02*
X331634Y240965D01*
Y295965D01*
X336634Y285964D02*
X370384Y319714D01*
X336634Y235964D02*
Y285964D01*
X314134Y213464D02*
X336634Y235964D01*
X311634Y245965D02*
X319134Y238464D01*
X311634Y245965D02*
Y269714D01*
X319134Y277215D01*
X374134Y179715D02*
X375384Y178464D01*
Y167215D02*
Y178464D01*
X369134Y160965D02*
X375384Y167215D01*
X360384Y202215D02*
X380059Y182539D01*
Y68140D02*
Y182539D01*
X375384Y63464D02*
X380059Y68140D01*
X312884Y97215D02*
X326634D01*
X281634Y63464D02*
X290384Y72215D01*
X216634Y177215D02*
Y200964D01*
X295384Y229714D02*
X297884D01*
X280384Y214715D02*
X295384Y229714D01*
X309134Y230964D02*
X321634D01*
X307884Y229714D02*
X309134Y230964D01*
X206634Y194714D02*
Y204714D01*
X201634Y189715D02*
X206634Y194714D01*
X192884Y189715D02*
X201634D01*
X187884Y194714D02*
X192884Y189715D01*
X187884Y194714D02*
Y204714D01*
X165384Y189715D02*
Y239715D01*
X205384Y168465D02*
Y173465D01*
X165384Y189715D02*
X176634Y178464D01*
X200384D01*
X205384Y173465D01*
X206634Y204714D02*
X210384Y208465D01*
X224134Y177215D02*
Y200964D01*
X210384Y208465D02*
X264134D01*
X270134Y214464D01*
X241634Y200964D02*
X272884D01*
X270134Y214464D02*
Y221965D01*
X277884Y229714D01*
X230384Y290965D02*
X234134Y287214D01*
X230384Y290965D02*
Y298464D01*
X185634Y293714D02*
X194134Y302215D01*
Y314715D01*
X211634Y263464D02*
Y268464D01*
Y258465D02*
Y263464D01*
X185634Y275765D02*
Y293714D01*
Y275765D02*
X197884Y263515D01*
Y263464D02*
Y263515D01*
Y263464D02*
X211634D01*
X189134Y277215D02*
Y283465D01*
X211634Y248464D02*
X220384Y257214D01*
Y270965D01*
X216634Y274714D02*
X220384Y270965D01*
X191634Y274714D02*
X216634D01*
X189134Y277215D02*
X191634Y274714D01*
X300384Y324714D02*
X311634Y335964D01*
X325384D01*
X330384Y330964D01*
Y320945D02*
Y330964D01*
X300394Y290955D02*
X330384Y320945D01*
X276634Y214715D02*
X280384D01*
X241634Y238464D02*
X247884Y244714D01*
Y250964D01*
X245384Y253465D02*
X247884Y250964D01*
X226634Y253465D02*
X237884D01*
X216634Y243464D02*
X226634Y253465D01*
X172884Y255964D02*
X176634Y259715D01*
X172884Y248464D02*
Y255964D01*
X170384Y245965D02*
X172884Y248464D01*
X170384Y205964D02*
Y245965D01*
Y205964D02*
X180384Y195965D01*
X190384Y243464D02*
X201634Y232214D01*
X215384D01*
X231634Y248464D01*
X255384Y228465D02*
X261634Y222215D01*
X319134Y177215D02*
Y207214D01*
X157884Y198465D02*
Y215965D01*
X151634Y222215D02*
X157884Y215965D01*
X144134Y222215D02*
X151634D01*
X195384Y195965D02*
X200384Y200964D01*
X80384Y152715D02*
X90384D01*
X7884Y152215D02*
X20384Y164715D01*
X45384Y40964D02*
X47134Y42715D01*
X80384D01*
X7884Y40964D02*
X20384Y28464D01*
X35634D01*
X7884Y40964D02*
Y152215D01*
X45384Y18714D02*
Y40964D01*
X280384Y324714D02*
X300384D01*
X280384D02*
Y325964D01*
X270384Y335964D02*
X280384Y325964D01*
X251634Y335964D02*
X270384D01*
X240384Y324714D02*
X251634Y335964D01*
X289134Y258465D02*
X291634D01*
X297884Y229714D02*
Y252215D01*
X291634Y258465D02*
X297884Y252215D01*
X360384Y162215D02*
Y172214D01*
X14134Y48465D02*
X17884Y44714D01*
X50384Y147214D02*
X96634D01*
X14134Y48465D02*
Y110965D01*
X50384Y147214D01*
X105384Y155965D02*
Y158465D01*
X96634Y147214D02*
X105384Y155965D01*
X56884Y7215D02*
X121634D01*
X125384Y10965D01*
X178634D01*
X35634Y28464D02*
X56884Y7215D01*
X80384Y42715D02*
Y52715D01*
X28384Y96715D02*
X62384Y62714D01*
X90384D01*
X194134Y35965D02*
X217884Y12214D01*
X180384Y42715D02*
X187134Y35965D01*
X194134D01*
X187384Y32214D02*
X208634Y10965D01*
X155384Y57214D02*
X157884Y59715D01*
X176634D02*
X180384Y55964D01*
Y52715D02*
Y55964D01*
X157884Y59715D02*
X176634D01*
X165384Y38464D02*
X171634Y32214D01*
X187384D01*
X155384Y37214D02*
X165384Y27215D01*
X182384D01*
X198634Y10965D01*
X170384Y42715D02*
Y43464D01*
X317884Y4715D02*
X331634Y18464D01*
X250384Y10714D02*
X256384Y4715D01*
X317884D01*
X340384Y192215D02*
X350384D01*
X336634Y188464D02*
X340384Y192215D01*
X342884Y182214D02*
X350384D01*
X340384Y179715D02*
X342884Y182214D01*
X332884Y198465D02*
X336634Y202215D01*
X350384D01*
X329134Y208465D02*
X332884Y212214D01*
X350384D01*
X325384Y218464D02*
X329134Y222215D01*
X350384D01*
X321634Y170965D02*
X325384Y174715D01*
Y218464D01*
X322884Y167215D02*
X329134Y173465D01*
Y208465D01*
X324134Y163464D02*
X332884Y172214D01*
Y198465D01*
X336634Y170965D02*
Y188464D01*
X326634Y155965D02*
X340384Y169714D01*
Y179715D01*
X276634Y170965D02*
X280384Y167215D01*
X276634Y170965D02*
Y174715D01*
X272884Y178464D02*
X276634Y174715D01*
X240384Y172714D02*
X246134Y178464D01*
X272884D01*
X280384Y167215D02*
X322884D01*
X280384Y173465D02*
Y177215D01*
X235384D02*
X240384Y182214D01*
X275384D01*
X280384Y177215D01*
X282884Y170965D02*
X321634D01*
X280384Y173465D02*
X282884Y170965D01*
X260384Y162715D02*
X267134Y155965D01*
X274134D01*
X281634Y163464D01*
X324134D01*
X325634Y159965D02*
X336634Y170965D01*
X282884Y157214D02*
X285634Y159965D01*
X325634D01*
X270384Y162715D02*
Y172714D01*
X289134Y155965D02*
X326634D01*
X285384Y152215D02*
X289134Y155965D01*
X270384Y42715D02*
X281634Y53965D01*
X210384Y162715D02*
Y163464D01*
X205384Y168465D02*
X210384Y163464D01*
X155384Y249714D02*
X165384Y239715D01*
X146634Y249714D02*
X155384D01*
X185384Y158465D02*
X191634Y152215D01*
X285384D01*
X175384Y158465D02*
X185384Y148465D01*
X286634D02*
X290384Y152215D01*
X327884D01*
X337884Y162215D02*
X350384D01*
X327884Y152215D02*
X337884Y162215D01*
X170384Y157214D02*
Y162215D01*
X287884Y144714D02*
X291634Y148465D01*
X330384D01*
X339134Y157214D02*
X346634D01*
X170384D02*
X182884Y144714D01*
X287884D01*
X330384Y148465D02*
X339134Y157214D01*
X340384Y152215D02*
X350384D01*
X289134Y140964D02*
X292884Y144714D01*
X332884D01*
X340384Y152215D01*
X160384Y160965D02*
Y162715D01*
Y160965D02*
X180384Y140964D01*
X155384Y158465D02*
X176634Y137215D01*
X294134Y132214D02*
X350384D01*
X289134Y137215D02*
X294134Y132214D01*
X176634Y137215D02*
X289134D01*
X336634Y142215D02*
X350384D01*
X299134Y138464D02*
X332884D01*
X280384Y133465D02*
X282884Y130965D01*
X150384Y155965D02*
Y162715D01*
X172884Y133465D02*
X280384D01*
X150384Y155965D02*
X172884Y133465D01*
X332884Y138464D02*
X336634Y142215D01*
X115384Y55964D02*
X122884Y63464D01*
X110384Y52715D02*
Y55964D01*
X121634Y67215D01*
X105384Y55964D02*
X120384Y70964D01*
X100384Y52715D02*
Y55964D01*
X119134Y74714D01*
X90384Y52715D02*
X116134Y78465D01*
X122884Y63464D02*
X270384D01*
X290384Y83464D01*
X121634Y67215D02*
X269134D01*
X289134Y87214D01*
X120384Y70964D02*
X267884D01*
X287884Y90965D01*
X119134Y74714D02*
X266634D01*
X116134Y78465D02*
X265384D01*
X314134Y127215D01*
X346634D01*
X314134Y122214D02*
X324134D01*
X266634Y74714D02*
X314134Y122214D01*
X344134Y87214D02*
X360384Y103464D01*
Y112215D01*
X289134Y87214D02*
X344134D01*
X364134Y122214D02*
X366634Y119714D01*
X360384Y122214D02*
X364134D01*
X290384Y83464D02*
X345384D01*
X366634Y104715D01*
Y119714D01*
X287884Y90965D02*
X336634D01*
X344134Y98465D01*
Y115964D02*
X350384Y122214D01*
X305384Y104715D02*
X316634Y115964D01*
X344134D01*
X305384Y97215D02*
X320384Y112215D01*
X349134D01*
X140384Y158465D02*
Y162715D01*
Y158465D02*
X168884Y129964D01*
X139634Y172714D02*
X140384D01*
X135384Y168465D02*
X139634Y172714D01*
X135384Y155965D02*
X165384Y125964D01*
X135384Y155965D02*
Y158465D01*
X120384Y162715D02*
X121134D01*
X161634Y122214D01*
X305384Y77214D02*
X351634Y30964D01*
Y18464D02*
Y30964D01*
X360384Y162215D02*
X370384Y152215D01*
X360384Y4715D02*
X370384Y14715D01*
X345384Y4715D02*
X360384D01*
X331634Y18464D02*
X345384Y4715D01*
X281634Y40964D02*
Y45965D01*
X275384Y34714D02*
X281634Y40964D01*
X255384Y34714D02*
X275384D01*
X250384Y29715D02*
X255384Y34714D01*
X250384Y20715D02*
Y29715D01*
X180384Y140964D02*
X289134D01*
X185384Y148465D02*
X286634D01*
X131476Y242372D02*
X144134Y229714D01*
X119134Y242372D02*
X131476D01*
X155384Y272215D02*
X156634D01*
X104134Y253465D02*
X136634D01*
X155384Y272215D01*
X164134Y255964D02*
X166634Y253465D01*
X131476Y242372D02*
X145069Y255964D01*
X164134D01*
Y278465D01*
X157884Y284715D02*
X164134Y278465D01*
X200384Y213464D02*
X260384D01*
X266634Y219714D01*
X200384Y200964D02*
Y222215D01*
X266634Y219714D02*
Y228465D01*
X272884Y200964D02*
X285384Y213464D01*
X314134D01*
X270384Y345965D02*
X355384D01*
X370384Y330964D01*
Y319714D02*
Y330964D01*
X276634Y129715D02*
X282884Y123465D01*
X268884Y129964D02*
X269134Y129715D01*
X264134D02*
X276634D01*
X168884Y129964D02*
X268884D01*
X272884Y125964D02*
X282884Y115964D01*
X165384Y125964D02*
X272884D01*
X267884Y122214D02*
X282884Y107214D01*
X161634Y122214D02*
X267884D01*
X264134Y102215D02*
X277884D01*
X279134Y100964D01*
X299134Y72215D02*
X315384Y55964D01*
X317884D01*
X189134Y283465D02*
X215384Y309715D01*
X305384D02*
X320384Y324714D01*
X215384Y309715D02*
X305384D01*
X355384Y197214D02*
X360384Y192215D01*
X342884Y247215D02*
Y282214D01*
X365384Y60965D02*
Y65965D01*
Y60965D02*
X370384Y55964D01*
Y14715D02*
Y55964D01*
X365384Y65965D02*
X370384Y70964D01*
Y152215D01*
X281634Y53965D02*
Y63464D01*
D18*
X216634Y158465D02*
Y177215D01*
X237884Y253465D02*
X245384D01*
X207884Y243464D02*
X216634D01*
X124634Y178464D02*
X130384Y172714D01*
X107884Y178464D02*
X124634D01*
X105384Y175964D02*
X107884Y178464D01*
X105384Y158465D02*
Y175964D01*
X165384Y38464D02*
Y47714D01*
X170384Y52715D01*
X155384Y37214D02*
Y57214D01*
X235384Y167715D02*
Y177215D01*
Y167715D02*
X240384Y162715D01*
X185384Y158465D02*
Y167715D01*
X180384Y172714D02*
X185384Y167715D01*
X170384Y172714D02*
X175384Y167715D01*
Y158465D02*
Y167715D01*
X346634Y157214D02*
X354134D01*
X355384Y158465D01*
Y167215D01*
X350384Y172214D02*
X355384Y167215D01*
X150384Y172214D02*
Y172714D01*
Y172214D02*
X155384Y167215D01*
Y158465D02*
Y167215D01*
X355384Y147214D02*
X360384Y152215D01*
X354134Y127215D02*
X355384Y128464D01*
X346634Y127215D02*
X354134D01*
X355384Y128464D02*
Y147214D01*
X110384Y42715D02*
X110884D01*
X115384Y47214D01*
Y55964D01*
X100384Y42715D02*
X100884D01*
X105384Y47214D01*
Y55964D01*
X135384Y158465D02*
Y168465D01*
X224134Y158465D02*
Y177215D01*
X342884Y197214D02*
X355384D01*
D19*
X138750Y281250D02*
D03*
X131250Y288750D02*
D03*
X123750Y281250D02*
D03*
X142384Y300714D02*
D03*
X132384D02*
D03*
X122384D02*
D03*
D20*
X500625Y155000D02*
D03*
X570625Y345000D02*
D03*
X484625D02*
D03*
X520625Y155000D02*
D03*
D21*
X470625D02*
D03*
X460625D02*
D03*
X450625D02*
D03*
X440625D02*
D03*
X430625D02*
D03*
X490625D02*
D03*
X480625D02*
D03*
X540625Y345000D02*
D03*
X530625D02*
D03*
X520625D02*
D03*
X510625D02*
D03*
X500625D02*
D03*
X560625D02*
D03*
X550625D02*
D03*
X474625D02*
D03*
X464625D02*
D03*
X454625D02*
D03*
X444625D02*
D03*
X434625D02*
D03*
X424625D02*
D03*
X414625D02*
D03*
X404625D02*
D03*
X394625D02*
D03*
X530625Y155000D02*
D03*
X540625D02*
D03*
X550625D02*
D03*
X560625D02*
D03*
X570625D02*
D03*
D22*
X181625Y311250D02*
D03*
X82125D02*
D03*
X93125Y237500D02*
D03*
Y272500D02*
D03*
X33125D02*
D03*
X93125Y190625D02*
D03*
Y225625D02*
D03*
X33125D02*
D03*
D23*
Y237500D02*
D03*
Y190625D02*
D03*
D24*
X20321Y294714D02*
D03*
D25*
X8510Y314400D02*
D03*
X32919D02*
D03*
D26*
X182884Y223464D02*
D03*
X177884D02*
D03*
D27*
X190384Y243464D02*
D03*
X274134D02*
D03*
D28*
X180384Y253465D02*
D03*
X264134D02*
D03*
X274134Y263464D02*
D03*
X270384Y42715D02*
D03*
Y52715D02*
D03*
X260384Y42715D02*
D03*
Y52715D02*
D03*
X250384Y42715D02*
D03*
Y52715D02*
D03*
X240384Y42715D02*
D03*
Y52715D02*
D03*
X230384Y42715D02*
D03*
Y52715D02*
D03*
X220384Y42715D02*
D03*
Y52715D02*
D03*
X210384Y42715D02*
D03*
Y52715D02*
D03*
X200384Y42715D02*
D03*
Y52715D02*
D03*
X190384Y42715D02*
D03*
Y52715D02*
D03*
X180384Y42715D02*
D03*
Y52715D02*
D03*
X170384Y42715D02*
D03*
Y52715D02*
D03*
X160384Y42715D02*
D03*
Y52715D02*
D03*
X150384Y42715D02*
D03*
Y52715D02*
D03*
X140384Y42715D02*
D03*
Y52715D02*
D03*
X130384Y42715D02*
D03*
Y52715D02*
D03*
X120384Y42715D02*
D03*
Y52715D02*
D03*
X110384Y42715D02*
D03*
Y52715D02*
D03*
X100384Y42715D02*
D03*
Y52715D02*
D03*
X90384Y42715D02*
D03*
Y52715D02*
D03*
X80384Y42715D02*
D03*
X90384Y152715D02*
D03*
X80384D02*
D03*
X90384Y122714D02*
D03*
X80384D02*
D03*
Y112715D02*
D03*
Y102715D02*
D03*
X90384Y92715D02*
D03*
X80384D02*
D03*
X90384Y82714D02*
D03*
X80384D02*
D03*
X90384Y72715D02*
D03*
X80384D02*
D03*
X90384Y62714D02*
D03*
X80384Y172714D02*
D03*
Y162715D02*
D03*
X90384Y172714D02*
D03*
Y162715D02*
D03*
X100384Y172714D02*
D03*
Y162715D02*
D03*
X110384Y172714D02*
D03*
Y162715D02*
D03*
X120384Y172714D02*
D03*
Y162715D02*
D03*
X130384Y172714D02*
D03*
Y162715D02*
D03*
X140384Y172714D02*
D03*
Y162715D02*
D03*
X150384Y172714D02*
D03*
Y162715D02*
D03*
X160384Y172714D02*
D03*
Y162715D02*
D03*
X170384Y172714D02*
D03*
Y162715D02*
D03*
X180384Y172714D02*
D03*
Y162715D02*
D03*
X190384Y172714D02*
D03*
Y162715D02*
D03*
X200384D02*
D03*
X210384D02*
D03*
X230384Y172714D02*
D03*
X240384D02*
D03*
Y162715D02*
D03*
X250384Y172714D02*
D03*
Y162715D02*
D03*
X260384Y172714D02*
D03*
Y162715D02*
D03*
X270384Y172714D02*
D03*
D29*
X187884Y223464D02*
D03*
D30*
X119134Y242372D02*
D03*
Y262057D02*
D03*
D31*
X211634Y268464D02*
D03*
X178634Y10965D02*
D03*
X270384Y20715D02*
D03*
X289134Y268464D02*
D03*
Y207214D02*
D03*
D32*
X211634Y258465D02*
D03*
Y248464D02*
D03*
Y238464D02*
D03*
X241634Y268464D02*
D03*
Y258465D02*
D03*
Y248464D02*
D03*
Y238464D02*
D03*
X218634Y10965D02*
D03*
X208634D02*
D03*
X198634D02*
D03*
X188634D02*
D03*
X270384Y10714D02*
D03*
X260384Y20715D02*
D03*
Y10714D02*
D03*
X250384Y20715D02*
D03*
Y10714D02*
D03*
X319134Y238464D02*
D03*
Y248464D02*
D03*
Y258465D02*
D03*
Y268464D02*
D03*
X289134Y238464D02*
D03*
Y248464D02*
D03*
Y258465D02*
D03*
X319134Y177215D02*
D03*
Y187215D02*
D03*
Y197214D02*
D03*
Y207214D02*
D03*
X289134Y177215D02*
D03*
Y187215D02*
D03*
Y197214D02*
D03*
D33*
X50384Y318714D02*
D03*
D34*
Y298714D02*
D03*
D35*
X80384Y52715D02*
D03*
Y62714D02*
D03*
X270384Y162715D02*
D03*
D36*
X195384Y197214D02*
D03*
X180384D02*
D03*
D37*
X430384Y257715D02*
D03*
Y247714D02*
D03*
X440384Y257715D02*
D03*
Y247714D02*
D03*
X450384Y257715D02*
D03*
Y247714D02*
D03*
X460384Y257715D02*
D03*
Y247714D02*
D03*
X470384Y257715D02*
D03*
Y247714D02*
D03*
X480384Y257715D02*
D03*
Y247714D02*
D03*
X490384Y257715D02*
D03*
Y247714D02*
D03*
X500384Y257715D02*
D03*
Y247714D02*
D03*
X510384Y257715D02*
D03*
Y247714D02*
D03*
X520384Y257715D02*
D03*
Y247714D02*
D03*
X530384Y257715D02*
D03*
Y247714D02*
D03*
X540384Y257715D02*
D03*
Y247714D02*
D03*
X550384Y257715D02*
D03*
X350384Y232214D02*
D03*
X360384D02*
D03*
X350384Y222215D02*
D03*
X360384D02*
D03*
X350384Y212214D02*
D03*
X360384D02*
D03*
X350384Y202215D02*
D03*
X360384D02*
D03*
X350384Y192215D02*
D03*
X360384D02*
D03*
X350384Y182214D02*
D03*
X360384D02*
D03*
X350384Y172214D02*
D03*
X360384D02*
D03*
X350384Y162215D02*
D03*
X360384D02*
D03*
X350384Y152215D02*
D03*
X360384D02*
D03*
X350384Y142215D02*
D03*
X360384D02*
D03*
X350384Y132214D02*
D03*
X360384D02*
D03*
X350384Y122214D02*
D03*
X360384D02*
D03*
X350384Y112215D02*
D03*
D38*
X550384Y247714D02*
D03*
D39*
X360384Y112215D02*
D03*
D40*
X48384Y96715D02*
D03*
X28384D02*
D03*
X45384Y18714D02*
D03*
X65384D02*
D03*
X240384Y324714D02*
D03*
X220384D02*
D03*
X20384Y164715D02*
D03*
Y144714D02*
D03*
X280384Y324714D02*
D03*
X260384D02*
D03*
X300384D02*
D03*
X320384D02*
D03*
X331634Y18464D02*
D03*
X351634D02*
D03*
X340384Y324714D02*
D03*
X360384D02*
D03*
D41*
X585384Y251730D02*
D03*
X395384D02*
D03*
X356368Y77214D02*
D03*
Y267214D02*
D03*
D42*
X418750Y332500D02*
D03*
X417500Y302500D02*
D03*
Y312500D02*
D03*
Y323750D02*
D03*
X427500Y332500D02*
D03*
X484625Y302500D02*
D03*
X475000Y308750D02*
D03*
X465000Y315000D02*
D03*
X455000Y320000D02*
D03*
X445000Y326250D02*
D03*
X435000Y332500D02*
D03*
X372884Y63464D02*
D03*
X342884Y282214D02*
D03*
Y247215D02*
D03*
Y197214D02*
D03*
X317884Y55964D02*
D03*
X299134Y72215D02*
D03*
X279134Y100964D02*
D03*
X264134Y102215D02*
D03*
X282884Y107214D02*
D03*
Y115964D02*
D03*
Y123465D02*
D03*
X224134Y158465D02*
D03*
X270384Y345965D02*
D03*
X157884Y284715D02*
D03*
X104134Y253465D02*
D03*
X156634Y272215D02*
D03*
X144134Y229714D02*
D03*
X281634Y45965D02*
D03*
Y54715D02*
D03*
X305384Y77214D02*
D03*
Y97215D02*
D03*
Y104715D02*
D03*
X344134Y98465D02*
D03*
X324134Y122214D02*
D03*
X282884Y130965D02*
D03*
X299134Y138464D02*
D03*
X146634Y249714D02*
D03*
X282884Y157214D02*
D03*
X17884Y44714D02*
D03*
X140384Y267214D02*
D03*
X166634Y253465D02*
D03*
X144134Y222215D02*
D03*
X157884Y198465D02*
D03*
X200384Y222215D02*
D03*
X261634D02*
D03*
X231634Y248464D02*
D03*
X195384Y279714D02*
D03*
X266634Y228465D02*
D03*
X276634Y214715D02*
D03*
X300394Y290955D02*
D03*
X194134Y314715D02*
D03*
X230384Y298464D02*
D03*
X234134Y287214D02*
D03*
X277884Y229714D02*
D03*
X241634Y200964D02*
D03*
X224134D02*
D03*
X187884Y204714D02*
D03*
X307884Y229714D02*
D03*
X297884D02*
D03*
X216634Y200964D02*
D03*
Y158465D02*
D03*
X290384Y72215D02*
D03*
X312884Y97215D02*
D03*
X326634D02*
D03*
X369134Y160965D02*
D03*
X374134Y179715D02*
D03*
X319134Y277215D02*
D03*
D43*
X129134Y109714D02*
D03*
X411634Y205964D02*
D03*
D44*
X78384Y164715D02*
X80384Y162715D01*
X20384Y164715D02*
X78384D01*
X20384Y225625D02*
Y272500D01*
Y164715D02*
Y225625D01*
X33125D01*
X20384Y272500D02*
Y295965D01*
X33125Y225625D02*
X93125D01*
X33125Y272500D02*
X93125D01*
X20384D02*
X33125D01*
X46069Y314400D02*
X50384Y318714D01*
X32919Y314400D02*
X46069D01*
X132384Y300714D02*
Y309214D01*
X147884Y324714D01*
X220384D01*
X142384Y300714D02*
X149134Y293965D01*
X134134Y262214D02*
X149134Y277215D01*
X119291Y262214D02*
X134134D01*
X119134Y262057D02*
X119291Y262214D01*
X110384Y270807D02*
X119134Y262057D01*
X110384Y270807D02*
Y283465D01*
X95134Y298714D02*
X110384Y283465D01*
X50384Y298714D02*
X95134D01*
X149134Y277215D02*
Y293965D01*
X224134Y340965D02*
X240384Y324714D01*
X47884Y329714D02*
X59134Y340965D01*
X23825Y329714D02*
X47884D01*
X8510Y314400D02*
X23825Y329714D01*
X8510Y307839D02*
Y314400D01*
Y307839D02*
X20384Y295965D01*
X59134Y340965D02*
X224134D01*
D45*
X131634Y113464D02*
X145838Y109714D01*
X129134Y93011D02*
X132884Y107214D01*
X112430Y109714D02*
X126634Y105965D01*
X125384Y112215D02*
X129134Y126418D01*
X414134Y209715D02*
X428338Y205964D01*
X411634Y189261D02*
X415384Y203465D01*
X394930Y205964D02*
X409134Y202215D01*
X407884Y208465D02*
X411634Y222668D01*
M02*
