%FSLAX25Y25*%
%MOIN*%
G70*
G01*
G75*
G04 Layer_Color=8388736*
%ADD10R,0.05118X0.05906*%
%ADD11R,0.05118X0.03347*%
%ADD12R,0.06000X0.06000*%
%ADD13R,0.03347X0.05118*%
%ADD14R,0.02362X0.05118*%
%ADD15R,0.05906X0.05118*%
%ADD16C,0.02500*%
%ADD17C,0.10000*%
%ADD18C,0.01500*%
%ADD19O,0.07087X0.08661*%
%ADD20R,0.06000X0.06000*%
%ADD21C,0.06000*%
%ADD22C,0.07874*%
%ADD23R,0.07874X0.07874*%
%ADD24O,0.15748X0.07874*%
%ADD25O,0.07874X0.17716*%
%ADD26O,0.03000X0.07874*%
%ADD27R,0.06299X0.06299*%
%ADD28C,0.06299*%
%ADD29O,0.03000X0.07874*%
%ADD30C,0.07087*%
%ADD31R,0.05906X0.05906*%
%ADD32C,0.05906*%
%ADD33R,0.07284X0.07284*%
%ADD34C,0.07284*%
%ADD35R,0.06299X0.06299*%
%ADD36C,0.08661*%
%ADD37C,0.06496*%
%ADD38R,0.06496X0.06496*%
%ADD39R,0.06496X0.06496*%
%ADD40C,0.11811*%
%ADD41C,0.09843*%
%ADD42C,0.05000*%
%ADD43R,0.00787X0.00787*%
%ADD44C,0.08000*%
%ADD45C,0.00787*%
%ADD46C,0.01000*%
%ADD47C,0.00984*%
%ADD48C,0.02362*%
%ADD49R,0.01181X0.08268*%
%ADD50R,0.08268X0.01181*%
%ADD51C,0.05906*%
%ADD52C,0.01969*%
%ADD53C,0.03937*%
%ADD54C,0.02000*%
%ADD55C,0.00500*%
%ADD56C,0.00700*%
%ADD57C,0.03000*%
%ADD58C,0.00800*%
%ADD59C,0.00591*%
%ADD60R,0.20000X0.25000*%
%ADD61R,0.06102X0.16142*%
%ADD62R,0.05918X0.06706*%
%ADD63R,0.05918X0.04147*%
%ADD64R,0.06800X0.06800*%
%ADD65R,0.04147X0.05918*%
%ADD66R,0.03162X0.05918*%
%ADD67R,0.06706X0.05918*%
%ADD68O,0.07887X0.09461*%
%ADD69R,0.06800X0.06800*%
%ADD70C,0.06800*%
%ADD71C,0.08674*%
%ADD72R,0.08674X0.08674*%
%ADD73O,0.16548X0.08674*%
%ADD74O,0.08674X0.18517*%
%ADD75O,0.03800X0.08674*%
%ADD76R,0.07099X0.07099*%
%ADD77C,0.07099*%
%ADD78C,0.00800*%
%ADD79O,0.03800X0.08674*%
%ADD80C,0.07887*%
%ADD81R,0.06706X0.06706*%
%ADD82C,0.06706*%
%ADD83R,0.08083X0.08083*%
%ADD84C,0.08083*%
%ADD85R,0.07099X0.07099*%
%ADD86C,0.09461*%
%ADD87C,0.07296*%
%ADD88R,0.07296X0.07296*%
%ADD89R,0.07296X0.07296*%
%ADD90C,0.12611*%
%ADD91C,0.10642*%
%ADD92C,0.05800*%
D62*
X165394Y279714D02*
D03*
X172874D02*
D03*
X206644D02*
D03*
X214124D02*
D03*
X281644Y289715D02*
D03*
X289124D02*
D03*
X207874Y214715D02*
D03*
X200394D02*
D03*
X222894Y279714D02*
D03*
X230374D02*
D03*
X136124Y324714D02*
D03*
X128644D02*
D03*
X240374Y224714D02*
D03*
X232894D02*
D03*
X246624Y279714D02*
D03*
X239144D02*
D03*
X161644Y219714D02*
D03*
X169124D02*
D03*
X169124Y229714D02*
D03*
X161644D02*
D03*
X83644Y18714D02*
D03*
X91124D02*
D03*
X34644Y66715D02*
D03*
X42124D02*
D03*
X10644Y54715D02*
D03*
X18124D02*
D03*
X281644Y279714D02*
D03*
X289124D02*
D03*
X224124Y214715D02*
D03*
X216644D02*
D03*
X169124Y209715D02*
D03*
X161644D02*
D03*
X290394Y223464D02*
D03*
X297874D02*
D03*
X307894D02*
D03*
X315374D02*
D03*
X216644Y224714D02*
D03*
X224124D02*
D03*
X307874Y279714D02*
D03*
X300394D02*
D03*
D63*
X253465Y209724D02*
D03*
X244803Y213464D02*
D03*
X253465Y217205D02*
D03*
D64*
X112134Y193214D02*
D03*
Y206715D02*
D03*
X115384Y24215D02*
D03*
Y10714D02*
D03*
D65*
X10644Y66384D02*
D03*
X14384Y75045D02*
D03*
X18124Y66384D02*
D03*
D66*
X169134Y265866D02*
D03*
X164134Y241063D02*
D03*
X169134D02*
D03*
X164134Y265866D02*
D03*
D67*
X218384Y28455D02*
D03*
Y20974D02*
D03*
X198634Y28705D02*
D03*
Y21224D02*
D03*
X208634Y28705D02*
D03*
Y21224D02*
D03*
X329134Y249724D02*
D03*
Y257205D02*
D03*
X151634Y229705D02*
D03*
Y222224D02*
D03*
X329134Y218455D02*
D03*
Y210974D02*
D03*
X112134Y226455D02*
D03*
Y218974D02*
D03*
X251634Y240974D02*
D03*
Y248455D02*
D03*
Y264705D02*
D03*
Y257224D02*
D03*
Y232205D02*
D03*
Y224724D02*
D03*
X155384Y249724D02*
D03*
Y257205D02*
D03*
X329134Y233474D02*
D03*
Y240955D02*
D03*
X201634Y268455D02*
D03*
Y260974D02*
D03*
Y249705D02*
D03*
Y242224D02*
D03*
D68*
X138750Y281250D02*
D03*
X131250Y288750D02*
D03*
X123750Y281250D02*
D03*
X142384Y300714D02*
D03*
X132384D02*
D03*
X122384D02*
D03*
D69*
X500625Y155000D02*
D03*
X570625Y345000D02*
D03*
X484625D02*
D03*
X520625Y155000D02*
D03*
D70*
X470625D02*
D03*
X460625D02*
D03*
X450625D02*
D03*
X440625D02*
D03*
X430625D02*
D03*
X490625D02*
D03*
X480625D02*
D03*
X540625Y345000D02*
D03*
X530625D02*
D03*
X520625D02*
D03*
X510625D02*
D03*
X500625D02*
D03*
X560625D02*
D03*
X550625D02*
D03*
X474625D02*
D03*
X464625D02*
D03*
X454625D02*
D03*
X444625D02*
D03*
X434625D02*
D03*
X424625D02*
D03*
X414625D02*
D03*
X404625D02*
D03*
X394625D02*
D03*
X530625Y155000D02*
D03*
X540625D02*
D03*
X550625D02*
D03*
X560625D02*
D03*
X570625D02*
D03*
D71*
X181625Y311250D02*
D03*
X82125D02*
D03*
X93125Y237500D02*
D03*
Y272500D02*
D03*
X33125D02*
D03*
X93125Y190625D02*
D03*
Y225625D02*
D03*
X33125D02*
D03*
D72*
Y237500D02*
D03*
Y190625D02*
D03*
D73*
X20321Y294714D02*
D03*
D74*
X8510Y314400D02*
D03*
X32919D02*
D03*
D75*
X182884Y223464D02*
D03*
X177884D02*
D03*
D76*
X190384Y243464D02*
D03*
X274134D02*
D03*
D77*
X180384Y253465D02*
D03*
X264134D02*
D03*
X274134Y263464D02*
D03*
X270384Y42715D02*
D03*
Y52715D02*
D03*
X260384Y42715D02*
D03*
Y52715D02*
D03*
X250384Y42715D02*
D03*
Y52715D02*
D03*
X240384Y42715D02*
D03*
Y52715D02*
D03*
X230384Y42715D02*
D03*
Y52715D02*
D03*
X220384Y42715D02*
D03*
Y52715D02*
D03*
X210384Y42715D02*
D03*
Y52715D02*
D03*
X200384Y42715D02*
D03*
Y52715D02*
D03*
X190384Y42715D02*
D03*
Y52715D02*
D03*
X180384Y42715D02*
D03*
Y52715D02*
D03*
X170384Y42715D02*
D03*
Y52715D02*
D03*
X160384Y42715D02*
D03*
Y52715D02*
D03*
X150384Y42715D02*
D03*
Y52715D02*
D03*
X140384Y42715D02*
D03*
Y52715D02*
D03*
X130384Y42715D02*
D03*
Y52715D02*
D03*
X120384Y42715D02*
D03*
Y52715D02*
D03*
X110384Y42715D02*
D03*
Y52715D02*
D03*
X100384Y42715D02*
D03*
Y52715D02*
D03*
X90384Y42715D02*
D03*
Y52715D02*
D03*
X80384Y42715D02*
D03*
X90384Y152715D02*
D03*
X80384D02*
D03*
X90384Y122714D02*
D03*
X80384D02*
D03*
Y112715D02*
D03*
Y102715D02*
D03*
X90384Y92715D02*
D03*
X80384D02*
D03*
X90384Y82714D02*
D03*
X80384D02*
D03*
X90384Y72715D02*
D03*
X80384D02*
D03*
X90384Y62714D02*
D03*
X80384Y172714D02*
D03*
Y162715D02*
D03*
X90384Y172714D02*
D03*
Y162715D02*
D03*
X100384Y172714D02*
D03*
Y162715D02*
D03*
X110384Y172714D02*
D03*
Y162715D02*
D03*
X120384Y172714D02*
D03*
Y162715D02*
D03*
X130384Y172714D02*
D03*
Y162715D02*
D03*
X140384Y172714D02*
D03*
Y162715D02*
D03*
X150384Y172714D02*
D03*
Y162715D02*
D03*
X160384Y172714D02*
D03*
Y162715D02*
D03*
X170384Y172714D02*
D03*
Y162715D02*
D03*
X180384Y172714D02*
D03*
Y162715D02*
D03*
X190384Y172714D02*
D03*
Y162715D02*
D03*
X200384D02*
D03*
X210384D02*
D03*
X230384Y172714D02*
D03*
X240384D02*
D03*
Y162715D02*
D03*
X250384Y172714D02*
D03*
Y162715D02*
D03*
X260384Y172714D02*
D03*
Y162715D02*
D03*
X270384Y172714D02*
D03*
D78*
X190384Y263464D02*
D03*
X90384Y142715D02*
D03*
X80384D02*
D03*
X90384Y132714D02*
D03*
X80384D02*
D03*
X90384Y112715D02*
D03*
Y102715D02*
D03*
X200384Y172714D02*
D03*
X210384D02*
D03*
X220384D02*
D03*
Y162715D02*
D03*
X230384D02*
D03*
X360384Y290965D02*
D03*
X22884Y343464D02*
D03*
X20384Y14715D02*
D03*
X357884Y52214D02*
D03*
D79*
X187884Y223464D02*
D03*
D80*
X119134Y242372D02*
D03*
Y262057D02*
D03*
D81*
X211634Y268464D02*
D03*
X178634Y10965D02*
D03*
X270384Y20715D02*
D03*
X289134Y268464D02*
D03*
Y207214D02*
D03*
D82*
X211634Y258465D02*
D03*
Y248464D02*
D03*
Y238464D02*
D03*
X241634Y268464D02*
D03*
Y258465D02*
D03*
Y248464D02*
D03*
Y238464D02*
D03*
X218634Y10965D02*
D03*
X208634D02*
D03*
X198634D02*
D03*
X188634D02*
D03*
X270384Y10714D02*
D03*
X260384Y20715D02*
D03*
Y10714D02*
D03*
X250384Y20715D02*
D03*
Y10714D02*
D03*
X319134Y238464D02*
D03*
Y248464D02*
D03*
Y258465D02*
D03*
Y268464D02*
D03*
X289134Y238464D02*
D03*
Y248464D02*
D03*
Y258465D02*
D03*
X319134Y177215D02*
D03*
Y187215D02*
D03*
Y197214D02*
D03*
Y207214D02*
D03*
X289134Y177215D02*
D03*
Y187215D02*
D03*
Y197214D02*
D03*
D83*
X50384Y318714D02*
D03*
D84*
Y298714D02*
D03*
D85*
X80384Y52715D02*
D03*
Y62714D02*
D03*
X270384Y162715D02*
D03*
D86*
X195384Y197214D02*
D03*
X180384D02*
D03*
D87*
X430384Y257715D02*
D03*
Y247714D02*
D03*
X440384Y257715D02*
D03*
Y247714D02*
D03*
X450384Y257715D02*
D03*
Y247714D02*
D03*
X460384Y257715D02*
D03*
Y247714D02*
D03*
X470384Y257715D02*
D03*
Y247714D02*
D03*
X480384Y257715D02*
D03*
Y247714D02*
D03*
X490384Y257715D02*
D03*
Y247714D02*
D03*
X500384Y257715D02*
D03*
Y247714D02*
D03*
X510384Y257715D02*
D03*
Y247714D02*
D03*
X520384Y257715D02*
D03*
Y247714D02*
D03*
X530384Y257715D02*
D03*
Y247714D02*
D03*
X540384Y257715D02*
D03*
Y247714D02*
D03*
X550384Y257715D02*
D03*
X350384Y232214D02*
D03*
X360384D02*
D03*
X350384Y222215D02*
D03*
X360384D02*
D03*
X350384Y212214D02*
D03*
X360384D02*
D03*
X350384Y202215D02*
D03*
X360384D02*
D03*
X350384Y192215D02*
D03*
X360384D02*
D03*
X350384Y182214D02*
D03*
X360384D02*
D03*
X350384Y172214D02*
D03*
X360384D02*
D03*
X350384Y162215D02*
D03*
X360384D02*
D03*
X350384Y152215D02*
D03*
X360384D02*
D03*
X350384Y142215D02*
D03*
X360384D02*
D03*
X350384Y132214D02*
D03*
X360384D02*
D03*
X350384Y122214D02*
D03*
X360384D02*
D03*
X350384Y112215D02*
D03*
D88*
X550384Y247714D02*
D03*
D89*
X360384Y112215D02*
D03*
D90*
X48384Y96715D02*
D03*
X28384D02*
D03*
X45384Y18714D02*
D03*
X65384D02*
D03*
X240384Y324714D02*
D03*
X220384D02*
D03*
X20384Y164715D02*
D03*
Y144714D02*
D03*
X280384Y324714D02*
D03*
X260384D02*
D03*
X300384D02*
D03*
X320384D02*
D03*
X331634Y18464D02*
D03*
X351634D02*
D03*
X340384Y324714D02*
D03*
X360384D02*
D03*
D91*
X585384Y251730D02*
D03*
X395384D02*
D03*
X356368Y77214D02*
D03*
Y267214D02*
D03*
D92*
X418750Y332500D02*
D03*
X417500Y302500D02*
D03*
Y312500D02*
D03*
Y323750D02*
D03*
X427500Y332500D02*
D03*
X484625Y302500D02*
D03*
X475000Y308750D02*
D03*
X465000Y315000D02*
D03*
X455000Y320000D02*
D03*
X445000Y326250D02*
D03*
X435000Y332500D02*
D03*
M02*
