%FSLAX25Y25*%
%MOIN*%
G70*
G01*
G75*
G04 Layer_Physical_Order=1*
G04 Layer_Color=255*
%ADD10R,0.05118X0.05906*%
%ADD11R,0.05118X0.03347*%
%ADD12R,0.06000X0.06000*%
%ADD13R,0.03347X0.05118*%
%ADD14R,0.02362X0.05118*%
%ADD15R,0.05906X0.05118*%
%ADD16C,0.02500*%
%ADD17C,0.10000*%
%ADD18C,0.01500*%
%ADD19O,0.07087X0.08661*%
%ADD20R,0.06000X0.06000*%
%ADD21C,0.06000*%
%ADD22C,0.07874*%
%ADD23R,0.07874X0.07874*%
%ADD24O,0.15748X0.07874*%
%ADD25O,0.07874X0.17716*%
%ADD26O,0.03000X0.07874*%
%ADD27R,0.06299X0.06299*%
%ADD28C,0.06299*%
%ADD29O,0.03000X0.07874*%
%ADD30C,0.07087*%
%ADD31R,0.05906X0.05906*%
%ADD32C,0.05906*%
%ADD33R,0.07284X0.07284*%
%ADD34C,0.07284*%
%ADD35R,0.06299X0.06299*%
%ADD36C,0.08661*%
%ADD37C,0.06496*%
%ADD38R,0.06496X0.06496*%
%ADD39R,0.06496X0.06496*%
%ADD40C,0.11811*%
%ADD41C,0.09843*%
%ADD42C,0.05000*%
G36*
X598750Y148649D02*
X598302Y148428D01*
X598251Y148467D01*
X597286Y148866D01*
X596250Y149003D01*
X517500D01*
X516464Y148866D01*
X515499Y148467D01*
X514670Y147830D01*
X514416Y147500D01*
X513084D01*
X512830Y147830D01*
X512001Y148467D01*
X511036Y148866D01*
X510000Y149003D01*
X437500D01*
X436464Y148866D01*
X435499Y148467D01*
X434695Y147850D01*
X434659Y147830D01*
X434091D01*
X434055Y147850D01*
X433251Y148467D01*
X432286Y148866D01*
X431250Y149003D01*
X388001D01*
X387671Y149379D01*
X387753Y150000D01*
Y218750D01*
X387616Y219786D01*
X387216Y220751D01*
X386580Y221580D01*
X385751Y222217D01*
X385670Y222250D01*
Y222750D01*
X385751Y222783D01*
X386580Y223420D01*
X387216Y224249D01*
X387616Y225214D01*
X387753Y226250D01*
Y249287D01*
X388253Y249361D01*
X388410Y248842D01*
X389108Y247537D01*
X390047Y246393D01*
X391190Y245454D01*
X392495Y244757D01*
X393911Y244327D01*
X395384Y244182D01*
X396856Y244327D01*
X398272Y244757D01*
X399577Y245454D01*
X400721Y246393D01*
X401660Y247537D01*
X402357Y248842D01*
X402787Y250258D01*
X402932Y251730D01*
X402787Y253203D01*
X402357Y254619D01*
X401660Y255924D01*
X400721Y257068D01*
X399577Y258006D01*
X398272Y258704D01*
X396856Y259133D01*
X395384Y259278D01*
X393911Y259133D01*
X392495Y258704D01*
X391190Y258006D01*
X390047Y257068D01*
X389108Y255924D01*
X388410Y254619D01*
X388253Y254100D01*
X387753Y254174D01*
Y282500D01*
X387616Y283536D01*
X387216Y284501D01*
X386580Y285330D01*
X385751Y285966D01*
X385670Y286000D01*
Y286500D01*
X385751Y286533D01*
X386580Y287170D01*
X387216Y287999D01*
X387616Y288964D01*
X387753Y290000D01*
Y351250D01*
X387616Y352286D01*
X387216Y353251D01*
X386580Y354080D01*
X386034Y354500D01*
X386203Y355000D01*
X598750D01*
Y148649D01*
D02*
G37*
%LPC*%
G36*
X479625Y158903D02*
X479581Y158897D01*
X478608Y158494D01*
X477772Y157853D01*
X477131Y157017D01*
X476728Y156044D01*
X476722Y156000D01*
X479625D01*
Y158903D01*
D02*
G37*
G36*
X494528Y154000D02*
X491625D01*
Y151097D01*
X491669Y151103D01*
X492642Y151506D01*
X493478Y152147D01*
X494119Y152983D01*
X494522Y153956D01*
X494528Y154000D01*
D02*
G37*
G36*
X489625Y158903D02*
X489581Y158897D01*
X488608Y158494D01*
X487772Y157853D01*
X487131Y157017D01*
X486728Y156044D01*
X486722Y156000D01*
X489625D01*
Y158903D01*
D02*
G37*
G36*
X481625D02*
Y156000D01*
X484528D01*
X484522Y156044D01*
X484119Y157017D01*
X483478Y157853D01*
X482642Y158494D01*
X481669Y158897D01*
X481625Y158903D01*
D02*
G37*
G36*
X484528Y154000D02*
X481625D01*
Y151097D01*
X481669Y151103D01*
X482642Y151506D01*
X483478Y152147D01*
X484119Y152983D01*
X484522Y153956D01*
X484528Y154000D01*
D02*
G37*
G36*
X479625D02*
X476722D01*
X476728Y153956D01*
X477131Y152983D01*
X477772Y152147D01*
X478608Y151506D01*
X479581Y151103D01*
X479625Y151097D01*
Y154000D01*
D02*
G37*
G36*
X505625Y160000D02*
X495625D01*
Y150000D01*
X505625D01*
Y160000D01*
D02*
G37*
G36*
X489625Y154000D02*
X486722D01*
X486728Y153956D01*
X487131Y152983D01*
X487772Y152147D01*
X488608Y151506D01*
X489581Y151103D01*
X489625Y151097D01*
Y154000D01*
D02*
G37*
G36*
X491625Y158903D02*
Y156000D01*
X494528D01*
X494522Y156044D01*
X494119Y157017D01*
X493478Y157853D01*
X492642Y158494D01*
X491669Y158897D01*
X491625Y158903D01*
D02*
G37*
G36*
X435000Y337039D02*
X433825Y336884D01*
X432731Y336431D01*
X431791Y335709D01*
X431500Y335331D01*
X431000D01*
X430709Y335709D01*
X429769Y336431D01*
X428675Y336884D01*
X427500Y337039D01*
X426325Y336884D01*
X425231Y336431D01*
X424291Y335709D01*
X423569Y334769D01*
X423375Y334300D01*
X422875D01*
X422681Y334769D01*
X421959Y335709D01*
X421019Y336431D01*
X419925Y336884D01*
X418750Y337039D01*
X417575Y336884D01*
X416481Y336431D01*
X415541Y335709D01*
X414819Y334769D01*
X414366Y333675D01*
X414211Y332500D01*
X414366Y331325D01*
X414819Y330231D01*
X415541Y329291D01*
X416381Y328646D01*
X416337Y328244D01*
X416281Y328116D01*
X415231Y327681D01*
X414291Y326959D01*
X413569Y326019D01*
X413116Y324925D01*
X412961Y323750D01*
X413116Y322575D01*
X413569Y321481D01*
X414291Y320541D01*
X415231Y319819D01*
X416325Y319366D01*
X416850Y319297D01*
X418803Y317343D01*
X418537Y316902D01*
X417500Y317039D01*
X416325Y316884D01*
X415231Y316431D01*
X414291Y315709D01*
X413569Y314769D01*
X413116Y313675D01*
X412961Y312500D01*
X413116Y311325D01*
X413569Y310231D01*
X414291Y309291D01*
X415231Y308569D01*
X416325Y308116D01*
X417500Y307961D01*
X418106Y308041D01*
X418803Y307343D01*
X418537Y306902D01*
X417500Y307039D01*
X416325Y306884D01*
X415231Y306431D01*
X414291Y305709D01*
X413569Y304769D01*
X413116Y303675D01*
X412961Y302500D01*
X413116Y301325D01*
X413569Y300231D01*
X414291Y299291D01*
X415231Y298569D01*
X416325Y298116D01*
X417500Y297961D01*
X418106Y298041D01*
X447106Y269041D01*
Y261814D01*
X446641Y261457D01*
X445800Y260361D01*
X445634Y259961D01*
X445134D01*
X444968Y260361D01*
X444127Y261457D01*
X443031Y262299D01*
X441754Y262827D01*
X440384Y263008D01*
X439014Y262827D01*
X437737Y262299D01*
X436641Y261457D01*
X435800Y260361D01*
X435634Y259961D01*
X435134D01*
X434968Y260361D01*
X434127Y261457D01*
X433031Y262299D01*
X431754Y262827D01*
X430384Y263008D01*
X429014Y262827D01*
X427737Y262299D01*
X426641Y261457D01*
X425800Y260361D01*
X425271Y259085D01*
X425091Y257715D01*
X425271Y256345D01*
X425800Y255068D01*
X426641Y253972D01*
X427737Y253130D01*
X428138Y252964D01*
Y252465D01*
X427737Y252299D01*
X426641Y251458D01*
X425800Y250361D01*
X425271Y249084D01*
X425091Y247714D01*
X425271Y246344D01*
X425800Y245068D01*
X426641Y243972D01*
X427737Y243130D01*
X429014Y242602D01*
X430384Y242421D01*
X431754Y242602D01*
X433031Y243130D01*
X434127Y243972D01*
X434968Y245068D01*
X435134Y245468D01*
X435634D01*
X435800Y245068D01*
X436641Y243972D01*
X437737Y243130D01*
X439014Y242602D01*
X440384Y242421D01*
X441754Y242602D01*
X443031Y243130D01*
X444127Y243972D01*
X444968Y245068D01*
X445134Y245468D01*
X445634D01*
X445800Y245068D01*
X446641Y243972D01*
X447737Y243130D01*
X449014Y242602D01*
X450384Y242421D01*
X451754Y242602D01*
X453030Y243130D01*
X454127Y243972D01*
X454968Y245068D01*
X455134Y245468D01*
X455634D01*
X455800Y245068D01*
X456641Y243972D01*
X457737Y243130D01*
X459014Y242602D01*
X460384Y242421D01*
X461754Y242602D01*
X463030Y243130D01*
X464127Y243972D01*
X464968Y245068D01*
X465134Y245468D01*
X465634D01*
X465800Y245068D01*
X466641Y243972D01*
X467737Y243130D01*
X469014Y242602D01*
X470384Y242421D01*
X471754Y242602D01*
X473031Y243130D01*
X474127Y243972D01*
X474968Y245068D01*
X475134Y245468D01*
X475634D01*
X475800Y245068D01*
X476641Y243972D01*
X477737Y243130D01*
X479014Y242602D01*
X480384Y242421D01*
X481754Y242602D01*
X483031Y243130D01*
X484127Y243972D01*
X484968Y245068D01*
X485497Y246344D01*
X485636Y247402D01*
X486140D01*
X486245Y246606D01*
X486673Y245572D01*
X487354Y244685D01*
X488241Y244004D01*
X489275Y243576D01*
X489384Y243562D01*
Y247714D01*
X490384D01*
Y248714D01*
X494537D01*
X494522Y248823D01*
X494095Y249857D01*
X493414Y250744D01*
X492526Y251425D01*
X491493Y251853D01*
X490696Y251958D01*
Y252462D01*
X491754Y252602D01*
X493031Y253130D01*
X494127Y253972D01*
X494968Y255068D01*
X495134Y255468D01*
X495634D01*
X495800Y255068D01*
X496641Y253972D01*
X497737Y253130D01*
X499014Y252602D01*
X500071Y252462D01*
Y251958D01*
X499275Y251853D01*
X498242Y251425D01*
X497354Y250744D01*
X496673Y249857D01*
X496245Y248823D01*
X496231Y248714D01*
X500384D01*
Y247714D01*
X501384D01*
Y243562D01*
X501493Y243576D01*
X502526Y244004D01*
X503414Y244685D01*
X504095Y245572D01*
X504523Y246606D01*
X504627Y247402D01*
X505132D01*
X505271Y246344D01*
X505800Y245068D01*
X506641Y243972D01*
X507737Y243130D01*
X509014Y242602D01*
X510384Y242421D01*
X511754Y242602D01*
X513030Y243130D01*
X514127Y243972D01*
X514968Y245068D01*
X515134Y245468D01*
X515634D01*
X515800Y245068D01*
X516641Y243972D01*
X517737Y243130D01*
X519014Y242602D01*
X520384Y242421D01*
X521754Y242602D01*
X523031Y243130D01*
X524127Y243972D01*
X524968Y245068D01*
X525134Y245468D01*
X525634D01*
X525800Y245068D01*
X526641Y243972D01*
X527737Y243130D01*
X529014Y242602D01*
X530384Y242421D01*
X531754Y242602D01*
X533031Y243130D01*
X534127Y243972D01*
X534968Y245068D01*
X535134Y245468D01*
X535634D01*
X535800Y245068D01*
X536641Y243972D01*
X537737Y243130D01*
X539014Y242602D01*
X540384Y242421D01*
X541754Y242602D01*
X543031Y243130D01*
X544127Y243972D01*
X544636Y244635D01*
X545136Y244465D01*
Y242466D01*
X555632D01*
Y252963D01*
X553633D01*
X553463Y253463D01*
X554127Y253972D01*
X554968Y255068D01*
X555497Y256345D01*
X555677Y257715D01*
X555497Y259085D01*
X554968Y260361D01*
X554127Y261457D01*
X553662Y261814D01*
Y267116D01*
X553606Y267540D01*
X553550Y267965D01*
X553386Y268360D01*
X553223Y268755D01*
X552702Y269434D01*
X487318Y334818D01*
X486639Y335339D01*
X486244Y335503D01*
X485848Y335666D01*
X485424Y335722D01*
X485000Y335778D01*
X438120D01*
X437269Y336431D01*
X436175Y336884D01*
X435000Y337039D01*
D02*
G37*
G36*
X585384Y259278D02*
X583911Y259133D01*
X582495Y258704D01*
X581190Y258006D01*
X580047Y257068D01*
X579108Y255924D01*
X578410Y254619D01*
X577981Y253203D01*
X577836Y251730D01*
X577981Y250258D01*
X578410Y248842D01*
X579108Y247537D01*
X580047Y246393D01*
X581190Y245454D01*
X582495Y244757D01*
X583911Y244327D01*
X585384Y244182D01*
X586856Y244327D01*
X588272Y244757D01*
X589577Y245454D01*
X590721Y246393D01*
X591660Y247537D01*
X592357Y248842D01*
X592787Y250258D01*
X592932Y251730D01*
X592787Y253203D01*
X592357Y254619D01*
X591660Y255924D01*
X590721Y257068D01*
X589577Y258006D01*
X588272Y258704D01*
X586856Y259133D01*
X585384Y259278D01*
D02*
G37*
G36*
X560625Y350043D02*
X559320Y349871D01*
X558103Y349367D01*
X557059Y348566D01*
X556257Y347522D01*
X555896Y346648D01*
X555354D01*
X554992Y347522D01*
X554191Y348566D01*
X553147Y349367D01*
X551930Y349871D01*
X550625Y350043D01*
X549320Y349871D01*
X548103Y349367D01*
X547059Y348566D01*
X546257Y347522D01*
X545896Y346648D01*
X545354D01*
X544992Y347522D01*
X544191Y348566D01*
X543147Y349367D01*
X541930Y349871D01*
X540625Y350043D01*
X539320Y349871D01*
X538103Y349367D01*
X537059Y348566D01*
X536258Y347522D01*
X535896Y346648D01*
X535354D01*
X534993Y347522D01*
X534191Y348566D01*
X533147Y349367D01*
X531930Y349871D01*
X530625Y350043D01*
X529320Y349871D01*
X528103Y349367D01*
X527059Y348566D01*
X526258Y347522D01*
X525896Y346648D01*
X525354D01*
X524993Y347522D01*
X524191Y348566D01*
X523147Y349367D01*
X521930Y349871D01*
X520625Y350043D01*
X519320Y349871D01*
X518103Y349367D01*
X517059Y348566D01*
X516257Y347522D01*
X515896Y346648D01*
X515354D01*
X514993Y347522D01*
X514191Y348566D01*
X513147Y349367D01*
X511930Y349871D01*
X510625Y350043D01*
X509320Y349871D01*
X508103Y349367D01*
X507059Y348566D01*
X506257Y347522D01*
X505896Y346648D01*
X505354D01*
X504992Y347522D01*
X504191Y348566D01*
X503147Y349367D01*
X501930Y349871D01*
X500625Y350043D01*
X499320Y349871D01*
X498103Y349367D01*
X497059Y348566D01*
X496257Y347522D01*
X495754Y346305D01*
X495582Y345000D01*
X495754Y343695D01*
X496257Y342478D01*
X497059Y341434D01*
X498103Y340633D01*
X499320Y340129D01*
X500625Y339957D01*
X501930Y340129D01*
X503147Y340633D01*
X504191Y341434D01*
X504992Y342478D01*
X505354Y343352D01*
X505896D01*
X506257Y342478D01*
X507059Y341434D01*
X508103Y340633D01*
X509320Y340129D01*
X510625Y339957D01*
X511930Y340129D01*
X513147Y340633D01*
X514191Y341434D01*
X514993Y342478D01*
X515354Y343352D01*
X515896D01*
X516257Y342478D01*
X517059Y341434D01*
X518103Y340633D01*
X519320Y340129D01*
X520625Y339957D01*
X521930Y340129D01*
X523147Y340633D01*
X524191Y341434D01*
X524993Y342478D01*
X525354Y343352D01*
X525896D01*
X526258Y342478D01*
X527059Y341434D01*
X528103Y340633D01*
X529320Y340129D01*
X530625Y339957D01*
X531930Y340129D01*
X533147Y340633D01*
X534191Y341434D01*
X534993Y342478D01*
X535354Y343352D01*
X535896D01*
X536258Y342478D01*
X537059Y341434D01*
X538103Y340633D01*
X539320Y340129D01*
X540625Y339957D01*
X541930Y340129D01*
X543147Y340633D01*
X544191Y341434D01*
X544992Y342478D01*
X545354Y343352D01*
X545896D01*
X546257Y342478D01*
X547059Y341434D01*
X548103Y340633D01*
X549320Y340129D01*
X550625Y339957D01*
X551930Y340129D01*
X553147Y340633D01*
X554191Y341434D01*
X554992Y342478D01*
X555354Y343352D01*
X555896D01*
X556257Y342478D01*
X557059Y341434D01*
X558103Y340633D01*
X559320Y340129D01*
X560625Y339957D01*
X561930Y340129D01*
X563147Y340633D01*
X564191Y341434D01*
X564993Y342478D01*
X565125Y342798D01*
X565625Y342699D01*
Y340000D01*
X575625D01*
Y350000D01*
X565625D01*
Y347301D01*
X565125Y347202D01*
X564993Y347522D01*
X564191Y348566D01*
X563147Y349367D01*
X561930Y349871D01*
X560625Y350043D01*
D02*
G37*
G36*
X474625D02*
X473320Y349871D01*
X472103Y349367D01*
X471059Y348566D01*
X470258Y347522D01*
X469896Y346648D01*
X469354D01*
X468993Y347522D01*
X468191Y348566D01*
X467147Y349367D01*
X465930Y349871D01*
X464625Y350043D01*
X463320Y349871D01*
X462103Y349367D01*
X461059Y348566D01*
X460257Y347522D01*
X459896Y346648D01*
X459354D01*
X458992Y347522D01*
X458191Y348566D01*
X457147Y349367D01*
X455930Y349871D01*
X454625Y350043D01*
X453320Y349871D01*
X452103Y349367D01*
X451059Y348566D01*
X450257Y347522D01*
X449896Y346648D01*
X449354D01*
X448992Y347522D01*
X448191Y348566D01*
X447147Y349367D01*
X445930Y349871D01*
X444625Y350043D01*
X443320Y349871D01*
X442103Y349367D01*
X441059Y348566D01*
X440258Y347522D01*
X439896Y346648D01*
X439354D01*
X438993Y347522D01*
X438191Y348566D01*
X437147Y349367D01*
X435930Y349871D01*
X434625Y350043D01*
X433320Y349871D01*
X432103Y349367D01*
X431059Y348566D01*
X430258Y347522D01*
X429896Y346648D01*
X429354D01*
X428993Y347522D01*
X428191Y348566D01*
X427147Y349367D01*
X425930Y349871D01*
X424625Y350043D01*
X423320Y349871D01*
X422103Y349367D01*
X421059Y348566D01*
X420258Y347522D01*
X419896Y346648D01*
X419354D01*
X418993Y347522D01*
X418191Y348566D01*
X417147Y349367D01*
X415930Y349871D01*
X414625Y350043D01*
X413320Y349871D01*
X412103Y349367D01*
X411059Y348566D01*
X410257Y347522D01*
X409896Y346648D01*
X409354D01*
X408992Y347522D01*
X408191Y348566D01*
X407147Y349367D01*
X405930Y349871D01*
X404625Y350043D01*
X403320Y349871D01*
X402103Y349367D01*
X401059Y348566D01*
X400257Y347522D01*
X399896Y346648D01*
X399354D01*
X398992Y347522D01*
X398191Y348566D01*
X397147Y349367D01*
X395930Y349871D01*
X394625Y350043D01*
X393320Y349871D01*
X392103Y349367D01*
X391059Y348566D01*
X390258Y347522D01*
X389754Y346305D01*
X389582Y345000D01*
X389754Y343695D01*
X390258Y342478D01*
X391059Y341434D01*
X392103Y340633D01*
X393320Y340129D01*
X394625Y339957D01*
X395930Y340129D01*
X397147Y340633D01*
X398191Y341434D01*
X398992Y342478D01*
X399354Y343352D01*
X399896D01*
X400257Y342478D01*
X401059Y341434D01*
X402103Y340633D01*
X403320Y340129D01*
X404625Y339957D01*
X405930Y340129D01*
X407147Y340633D01*
X408191Y341434D01*
X408992Y342478D01*
X409354Y343352D01*
X409896D01*
X410257Y342478D01*
X411059Y341434D01*
X412103Y340633D01*
X413320Y340129D01*
X414625Y339957D01*
X415930Y340129D01*
X417147Y340633D01*
X418191Y341434D01*
X418993Y342478D01*
X419354Y343352D01*
X419896D01*
X420258Y342478D01*
X421059Y341434D01*
X422103Y340633D01*
X423320Y340129D01*
X424625Y339957D01*
X425930Y340129D01*
X427147Y340633D01*
X428191Y341434D01*
X428993Y342478D01*
X429354Y343352D01*
X429896D01*
X430258Y342478D01*
X431059Y341434D01*
X432103Y340633D01*
X433320Y340129D01*
X434625Y339957D01*
X435930Y340129D01*
X437147Y340633D01*
X438191Y341434D01*
X438993Y342478D01*
X439354Y343352D01*
X439896D01*
X440258Y342478D01*
X441059Y341434D01*
X442103Y340633D01*
X443320Y340129D01*
X444625Y339957D01*
X445930Y340129D01*
X447147Y340633D01*
X448191Y341434D01*
X448992Y342478D01*
X449354Y343352D01*
X449896D01*
X450257Y342478D01*
X451059Y341434D01*
X452103Y340633D01*
X453320Y340129D01*
X454625Y339957D01*
X455930Y340129D01*
X457147Y340633D01*
X458191Y341434D01*
X458992Y342478D01*
X459354Y343352D01*
X459896D01*
X460257Y342478D01*
X461059Y341434D01*
X462103Y340633D01*
X463320Y340129D01*
X464625Y339957D01*
X465930Y340129D01*
X467147Y340633D01*
X468191Y341434D01*
X468993Y342478D01*
X469354Y343352D01*
X469896D01*
X470258Y342478D01*
X471059Y341434D01*
X472103Y340633D01*
X473320Y340129D01*
X474625Y339957D01*
X475930Y340129D01*
X477147Y340633D01*
X478191Y341434D01*
X478993Y342478D01*
X479125Y342798D01*
X479625Y342699D01*
Y340000D01*
X489625D01*
Y350000D01*
X479625D01*
Y347301D01*
X479125Y347202D01*
X478993Y347522D01*
X478191Y348566D01*
X477147Y349367D01*
X475930Y349871D01*
X474625Y350043D01*
D02*
G37*
G36*
X570625Y160043D02*
X569320Y159871D01*
X568103Y159368D01*
X567059Y158566D01*
X566257Y157522D01*
X565896Y156648D01*
X565354D01*
X564993Y157522D01*
X564191Y158566D01*
X563147Y159368D01*
X561930Y159871D01*
X560625Y160043D01*
X559320Y159871D01*
X558103Y159368D01*
X557059Y158566D01*
X556257Y157522D01*
X555896Y156648D01*
X555354D01*
X554992Y157522D01*
X554191Y158566D01*
X553147Y159368D01*
X551930Y159871D01*
X550625Y160043D01*
X549320Y159871D01*
X548103Y159368D01*
X547059Y158566D01*
X546257Y157522D01*
X545896Y156648D01*
X545354D01*
X544992Y157522D01*
X544191Y158566D01*
X543147Y159368D01*
X541930Y159871D01*
X540625Y160043D01*
X539320Y159871D01*
X538103Y159368D01*
X537059Y158566D01*
X536258Y157522D01*
X535896Y156648D01*
X535354D01*
X534993Y157522D01*
X534191Y158566D01*
X533147Y159368D01*
X531930Y159871D01*
X530625Y160043D01*
X529320Y159871D01*
X528103Y159368D01*
X527059Y158566D01*
X526258Y157522D01*
X526125Y157202D01*
X525625Y157301D01*
Y160000D01*
X515625D01*
Y150000D01*
X525625D01*
Y152699D01*
X526125Y152798D01*
X526258Y152478D01*
X527059Y151434D01*
X528103Y150633D01*
X529320Y150129D01*
X530625Y149957D01*
X531930Y150129D01*
X533147Y150633D01*
X534191Y151434D01*
X534993Y152478D01*
X535354Y153352D01*
X535896D01*
X536258Y152478D01*
X537059Y151434D01*
X538103Y150633D01*
X539320Y150129D01*
X540625Y149957D01*
X541930Y150129D01*
X543147Y150633D01*
X544191Y151434D01*
X544992Y152478D01*
X545354Y153352D01*
X545896D01*
X546257Y152478D01*
X547059Y151434D01*
X548103Y150633D01*
X549320Y150129D01*
X550625Y149957D01*
X551930Y150129D01*
X553147Y150633D01*
X554191Y151434D01*
X554992Y152478D01*
X555354Y153352D01*
X555896D01*
X556257Y152478D01*
X557059Y151434D01*
X558103Y150633D01*
X559320Y150129D01*
X560625Y149957D01*
X561930Y150129D01*
X563147Y150633D01*
X564191Y151434D01*
X564993Y152478D01*
X565354Y153352D01*
X565896D01*
X566257Y152478D01*
X567059Y151434D01*
X568103Y150633D01*
X569320Y150129D01*
X570625Y149957D01*
X571930Y150129D01*
X573147Y150633D01*
X574191Y151434D01*
X574993Y152478D01*
X575496Y153695D01*
X575668Y155000D01*
X575496Y156305D01*
X574993Y157522D01*
X574191Y158566D01*
X573147Y159368D01*
X571930Y159871D01*
X570625Y160043D01*
D02*
G37*
G36*
X470625D02*
X469320Y159871D01*
X468103Y159368D01*
X467059Y158566D01*
X466257Y157522D01*
X465896Y156648D01*
X465354D01*
X464993Y157522D01*
X464191Y158566D01*
X463147Y159368D01*
X461930Y159871D01*
X460625Y160043D01*
X459320Y159871D01*
X458103Y159368D01*
X457059Y158566D01*
X456257Y157522D01*
X455896Y156648D01*
X455354D01*
X454992Y157522D01*
X454191Y158566D01*
X453147Y159368D01*
X451930Y159871D01*
X450625Y160043D01*
X449320Y159871D01*
X448103Y159368D01*
X447059Y158566D01*
X446257Y157522D01*
X445896Y156648D01*
X445354D01*
X444992Y157522D01*
X444191Y158566D01*
X443147Y159368D01*
X441930Y159871D01*
X440625Y160043D01*
X439320Y159871D01*
X438103Y159368D01*
X437059Y158566D01*
X436258Y157522D01*
X435896Y156648D01*
X435354D01*
X434993Y157522D01*
X434191Y158566D01*
X433147Y159368D01*
X431930Y159871D01*
X430625Y160043D01*
X429320Y159871D01*
X428103Y159368D01*
X427059Y158566D01*
X426258Y157522D01*
X425754Y156305D01*
X425582Y155000D01*
X425754Y153695D01*
X426258Y152478D01*
X427059Y151434D01*
X428103Y150633D01*
X429320Y150129D01*
X430625Y149957D01*
X431930Y150129D01*
X433147Y150633D01*
X434191Y151434D01*
X434993Y152478D01*
X435354Y153352D01*
X435896D01*
X436258Y152478D01*
X437059Y151434D01*
X438103Y150633D01*
X439320Y150129D01*
X440625Y149957D01*
X441930Y150129D01*
X443147Y150633D01*
X444191Y151434D01*
X444992Y152478D01*
X445354Y153352D01*
X445896D01*
X446257Y152478D01*
X447059Y151434D01*
X448103Y150633D01*
X449320Y150129D01*
X450625Y149957D01*
X451930Y150129D01*
X453147Y150633D01*
X454191Y151434D01*
X454992Y152478D01*
X455354Y153352D01*
X455896D01*
X456257Y152478D01*
X457059Y151434D01*
X458103Y150633D01*
X459320Y150129D01*
X460625Y149957D01*
X461930Y150129D01*
X463147Y150633D01*
X464191Y151434D01*
X464993Y152478D01*
X465354Y153352D01*
X465896D01*
X466257Y152478D01*
X467059Y151434D01*
X468103Y150633D01*
X469320Y150129D01*
X470625Y149957D01*
X471930Y150129D01*
X473147Y150633D01*
X474191Y151434D01*
X474993Y152478D01*
X475496Y153695D01*
X475668Y155000D01*
X475496Y156305D01*
X474993Y157522D01*
X474191Y158566D01*
X473147Y159368D01*
X471930Y159871D01*
X470625Y160043D01*
D02*
G37*
G36*
X499384Y246714D02*
X496231D01*
X496245Y246606D01*
X496673Y245572D01*
X497354Y244685D01*
X498242Y244004D01*
X499275Y243576D01*
X499384Y243562D01*
Y246714D01*
D02*
G37*
G36*
X494537D02*
X491384D01*
Y243562D01*
X491493Y243576D01*
X492526Y244004D01*
X493414Y244685D01*
X494095Y245572D01*
X494522Y246606D01*
X494537Y246714D01*
D02*
G37*
%LPD*%
D10*
X165394Y279714D02*
D03*
X172874D02*
D03*
X206644D02*
D03*
X214124D02*
D03*
X281644Y289715D02*
D03*
X289124D02*
D03*
X207874Y214715D02*
D03*
X200394D02*
D03*
X222894Y279714D02*
D03*
X230374D02*
D03*
X136124Y324714D02*
D03*
X128644D02*
D03*
X240374Y224714D02*
D03*
X232894D02*
D03*
X246624Y279714D02*
D03*
X239144D02*
D03*
X161644Y219714D02*
D03*
X169124D02*
D03*
X169124Y229714D02*
D03*
X161644D02*
D03*
X83644Y18714D02*
D03*
X91124D02*
D03*
X34644Y66715D02*
D03*
X42124D02*
D03*
X10644Y54715D02*
D03*
X18124D02*
D03*
X281644Y279714D02*
D03*
X289124D02*
D03*
X224124Y214715D02*
D03*
X216644D02*
D03*
X169124Y209715D02*
D03*
X161644D02*
D03*
X290394Y223464D02*
D03*
X297874D02*
D03*
X307894D02*
D03*
X315374D02*
D03*
X216644Y224714D02*
D03*
X224124D02*
D03*
X307874Y279714D02*
D03*
X300394D02*
D03*
D11*
X253465Y209724D02*
D03*
X244803Y213464D02*
D03*
X253465Y217205D02*
D03*
D12*
X112134Y193214D02*
D03*
Y206715D02*
D03*
X115384Y24215D02*
D03*
Y10714D02*
D03*
D13*
X10644Y66384D02*
D03*
X14384Y75045D02*
D03*
X18124Y66384D02*
D03*
D14*
X169134Y265866D02*
D03*
X164134Y241063D02*
D03*
X169134D02*
D03*
X164134Y265866D02*
D03*
D15*
X218384Y28455D02*
D03*
Y20974D02*
D03*
X198634Y28705D02*
D03*
Y21224D02*
D03*
X208634Y28705D02*
D03*
Y21224D02*
D03*
X329134Y249724D02*
D03*
Y257205D02*
D03*
X151634Y229705D02*
D03*
Y222224D02*
D03*
X329134Y218455D02*
D03*
Y210974D02*
D03*
X112134Y226455D02*
D03*
Y218974D02*
D03*
X251634Y240974D02*
D03*
Y248455D02*
D03*
Y264705D02*
D03*
Y257224D02*
D03*
Y232205D02*
D03*
Y224724D02*
D03*
X155384Y249724D02*
D03*
Y257205D02*
D03*
X329134Y233474D02*
D03*
Y240955D02*
D03*
X201634Y268455D02*
D03*
Y260974D02*
D03*
Y249705D02*
D03*
Y242224D02*
D03*
D16*
X122884Y282116D02*
Y318955D01*
Y282116D02*
X123750Y281250D01*
X157884Y279714D02*
X165394D01*
X140286D02*
X157884D01*
X138750Y281250D02*
X140286Y279714D01*
X131250Y269631D02*
X136884Y263997D01*
X131250Y269631D02*
Y288750D01*
X500384Y257715D02*
Y292368D01*
X490251Y302500D02*
X500384Y292368D01*
X484625Y302500D02*
X490251D01*
X510384Y257715D02*
Y287317D01*
X488951Y308750D02*
X510384Y287317D01*
X475000Y308750D02*
X488951D01*
X520384Y257715D02*
Y282267D01*
X487651Y315000D02*
X520384Y282267D01*
X465000Y315000D02*
X487651D01*
X530384Y257715D02*
Y277217D01*
X487601Y320000D02*
X530384Y277217D01*
X455000Y320000D02*
X487601D01*
X540384Y257715D02*
Y272166D01*
X486300Y326250D02*
X540384Y272166D01*
X445000Y326250D02*
X486300D01*
X550384Y257715D02*
Y267116D01*
X485000Y332500D02*
X550384Y267116D01*
X435000Y332500D02*
X485000D01*
X418283D02*
X480384Y270399D01*
X490384Y257715D02*
Y269616D01*
X427500Y332500D02*
X490384Y269616D01*
X417500Y302500D02*
X418283D01*
X450384Y270399D01*
X417500Y312500D02*
X418283D01*
X460384Y270399D01*
X417500Y323283D02*
Y323750D01*
Y323283D02*
X470384Y270399D01*
Y257715D02*
Y270399D01*
X450384Y257715D02*
Y270399D01*
X460384Y257715D02*
Y270399D01*
X480384Y257715D02*
Y270399D01*
X80384Y172714D02*
X89544Y181875D01*
X104375D01*
X112134Y189634D01*
Y193214D01*
X93125Y253125D02*
X104134Y264134D01*
X93125Y237500D02*
Y253125D01*
X104134Y234455D02*
X112134Y226455D01*
X111634Y279348D02*
Y323414D01*
X115384Y280547D02*
X133384Y262547D01*
X115384Y280547D02*
Y322215D01*
X111634Y279348D02*
X129884Y261098D01*
Y212715D02*
Y261098D01*
X133384Y214214D02*
Y262547D01*
X136884Y221965D02*
Y263997D01*
Y221965D02*
X144134Y214715D01*
X140384Y244714D02*
Y267214D01*
Y244714D02*
X145384Y239715D01*
X107884Y263464D02*
X126384Y244965D01*
Y211214D02*
Y244965D01*
X133384Y214214D02*
X161634Y185965D01*
X129884Y212715D02*
X160384Y182214D01*
X126384Y211214D02*
X158884Y178715D01*
X281634Y45965D02*
X289134Y53465D01*
X281634Y54715D02*
X284134Y57214D01*
X319124Y268464D02*
X332884D01*
X177884Y217214D02*
Y243464D01*
X201624Y249714D02*
X201634Y249705D01*
X195384Y249714D02*
X201624D01*
X185384Y259715D02*
X195384Y249714D01*
X176634Y259715D02*
X185384D01*
X172884Y255964D02*
X176634Y259715D01*
X172884Y248464D02*
Y255964D01*
Y248464D02*
X177884Y243464D01*
X194006Y211093D02*
X209134Y195965D01*
X184006Y211093D02*
X194006D01*
X177884Y217214D02*
X184006Y211093D01*
X319134Y277215D02*
X330384D01*
X374134Y233465D01*
Y179715D02*
Y233465D01*
X369134Y160965D02*
X370384Y159714D01*
Y100964D02*
Y159714D01*
X362884Y93464D02*
X370384Y100964D01*
X360384Y182214D02*
X375384Y167215D01*
X366634Y304714D02*
X380059Y291289D01*
X330384Y93464D02*
X362884D01*
X326634Y97215D02*
X330384Y93464D01*
X304134Y57214D02*
X314134Y67215D01*
X312884Y75964D02*
Y97215D01*
X301634Y64714D02*
X312884Y75964D01*
X289134Y64714D02*
X301634D01*
X257884Y95964D02*
X289134Y64714D01*
X257884Y95964D02*
Y113464D01*
X216634Y154715D02*
X257884Y113464D01*
X216634Y154715D02*
Y158465D01*
X270384Y92215D02*
X290384Y72215D01*
X270384Y92215D02*
Y162715D01*
X216634Y200964D02*
X216644Y200974D01*
Y214715D01*
X297874Y223464D02*
Y230955D01*
X297884Y229714D02*
Y230945D01*
X297874Y230955D02*
X297884Y230945D01*
X307884Y229714D02*
X307894Y229705D01*
Y223464D02*
Y229705D01*
X295384Y185965D02*
Y214715D01*
Y185965D02*
X299134Y182214D01*
X314134D01*
X325384D02*
X329134Y185965D01*
Y210974D01*
X174124Y204714D02*
X187884D01*
X169124Y209715D02*
X174124Y204714D01*
X224124Y200974D02*
Y214715D01*
X244803Y204134D02*
Y213464D01*
X241634Y200964D02*
X244803Y204134D01*
X204384Y192464D02*
X248134D01*
X250884Y188964D02*
X269134Y207214D01*
X205884Y188964D02*
X250884D01*
X256384Y181965D02*
X261634Y187215D01*
X253634Y185465D02*
X265384Y197214D01*
X201634Y189715D02*
X204384Y192464D01*
X202884Y185965D02*
X205884Y188964D01*
X207334Y185465D02*
X253634D01*
X208783Y181965D02*
X256384D01*
X204084Y182214D02*
X207334Y185465D01*
X205533Y178715D02*
X208783Y181965D01*
X245384Y195965D02*
X253465Y204045D01*
X209134Y195965D02*
X245384D01*
X280384Y232214D02*
X292416D01*
X277884Y229714D02*
X280384Y232214D01*
X271634Y223464D02*
X290394D01*
X266634Y228465D02*
X271634Y223464D01*
X292416Y232214D02*
X318666Y258465D01*
X319134D01*
X104134Y325964D02*
X119134Y340965D01*
X104134Y264134D02*
Y325964D01*
X107884Y324614D02*
X120734Y337464D01*
X107884Y263464D02*
Y324614D01*
X111634Y323414D02*
X122184Y333964D01*
X115384Y322215D02*
X123634Y330465D01*
X119134Y340965D02*
X182884D01*
X181434Y337464D02*
X220434Y298464D01*
X140884Y330465D02*
X149134Y322215D01*
X123634Y330465D02*
X140884D01*
X179884Y333964D02*
X194134Y319714D01*
X122184Y333964D02*
X179884D01*
X120734Y337464D02*
X181434D01*
X182884Y340965D02*
X214134Y309715D01*
X315384D01*
X220434Y298464D02*
X230384D01*
X234759Y279714D02*
X239144D01*
X230374D02*
X234759D01*
Y286590D01*
X234134Y287214D02*
X234759Y286590D01*
X315384Y309715D02*
X342884Y282214D01*
X194134Y314715D02*
Y319714D01*
X289124Y279714D02*
Y289715D01*
Y268474D02*
Y279714D01*
Y289715D02*
Y293474D01*
X285384Y297215D02*
X289124Y293474D01*
X276634Y297215D02*
X285384D01*
X271634Y292214D02*
X276634Y297215D01*
X157884Y292214D02*
X271634D01*
X149134Y300964D02*
X157884Y292214D01*
X149134Y300964D02*
Y322215D01*
X158884Y178715D02*
X205533D01*
X162884Y189715D02*
X201634D01*
X157884Y194714D02*
X162884Y189715D01*
X157884Y194714D02*
Y198465D01*
X160384Y182214D02*
X204084D01*
X161634Y185965D02*
X202884D01*
X248134Y192464D02*
X270384Y214715D01*
X261634Y187215D02*
X289134D01*
X265384Y197214D02*
X289134D01*
X269134Y207214D02*
X289134D01*
X300394Y245974D02*
Y279714D01*
X292884Y238464D02*
X300394Y245974D01*
X289134Y238464D02*
X292884D01*
X300394Y279714D02*
Y290955D01*
X307874Y279714D02*
X319124Y268464D01*
X270384Y214715D02*
X276634D01*
X290394Y219705D02*
Y223464D01*
Y219705D02*
X295384Y214715D01*
X157884Y198465D02*
Y205955D01*
X182884Y235964D02*
X190384Y243464D01*
X182884Y223464D02*
Y235964D01*
X324144Y233474D02*
X329134D01*
X321634Y230964D02*
X324144Y233474D01*
X315364Y230964D02*
X321634D01*
X311634Y234695D02*
Y243464D01*
X315364Y230964D02*
X315374Y230955D01*
X311634Y234695D02*
X315364Y230964D01*
X315374Y223464D02*
Y230955D01*
X189124Y272215D02*
X196624Y279714D01*
X170384Y272215D02*
X189124D01*
X169134Y270965D02*
X170384Y272215D01*
X230374Y279714D02*
Y283474D01*
X225384Y288464D02*
X230374Y283474D01*
X186634Y288464D02*
X225384D01*
X177884Y279714D02*
X186634Y288464D01*
X172874Y279714D02*
X177884D01*
X156634Y272215D02*
X167884D01*
X169134Y270965D01*
Y265866D02*
Y270965D01*
X201634Y268455D02*
Y274705D01*
X206644Y279714D01*
X241634Y268464D02*
X247874D01*
X251634Y264705D01*
X211634Y248464D02*
Y249714D01*
X201634Y240965D02*
X204134Y238464D01*
X201634Y240965D02*
Y242224D01*
X214124Y277224D02*
Y279714D01*
Y277224D02*
X219134Y272215D01*
Y245965D02*
Y272215D01*
X211634Y238464D02*
X219134Y245965D01*
X230374Y262224D02*
Y279714D01*
Y262224D02*
X234134Y258465D01*
X241634D01*
Y238464D02*
X247894Y232205D01*
X251634D01*
X240384Y224724D02*
X251634D01*
X236634Y213464D02*
X244803D01*
X232884Y217214D02*
Y224705D01*
X232894Y224714D01*
X224124D02*
Y232224D01*
X204134Y238464D02*
X217884D01*
X224124Y232224D01*
X251634Y240974D02*
X261624D01*
X266634Y235964D01*
Y228465D02*
Y235964D01*
X222884Y279714D02*
X222894D01*
X222884Y247215D02*
X240384Y229714D01*
X222884Y247215D02*
Y279714D01*
X240384Y224724D02*
Y229714D01*
X240374Y224714D02*
X240384Y224724D01*
X196624Y279714D02*
X201634Y274705D01*
X241634Y248464D02*
X251624D01*
X251634Y248455D01*
X259144D01*
X261634Y245965D01*
X271634D01*
X274134Y243464D01*
X264134Y253465D02*
Y273464D01*
X257884Y279714D02*
X264134Y273464D01*
X246624Y279714D02*
X257884D01*
X249144Y257224D02*
X251634D01*
X245384Y253465D02*
X249144Y257224D01*
X236634Y253465D02*
X237884D01*
X231634Y248464D02*
X236634Y253465D01*
X253465Y217205D02*
X256624D01*
X261634Y222215D01*
X216644Y214715D02*
Y224714D01*
Y214715D02*
X216644Y214715D01*
X207874D02*
X216644D01*
X216644Y214715D01*
X199134Y214715D02*
X200384Y215965D01*
X169124Y219714D02*
X169134Y219724D01*
Y241063D01*
X155384Y257205D02*
Y264715D01*
X156634Y265965D01*
X164035D01*
X164134Y265866D01*
X144134Y214715D02*
X155384D01*
X159134Y218464D01*
X160394D01*
X161644Y219714D01*
X320394Y249724D02*
X329134D01*
X319134Y248464D02*
X320394Y249724D01*
X157884Y205955D02*
X161644Y209715D01*
X144134Y222215D02*
X151624D01*
X151634Y222224D01*
X286634Y235964D02*
X289134Y238464D01*
X266634Y235964D02*
X286634D01*
X281644Y255955D02*
X289134Y248464D01*
X281644Y255955D02*
Y289715D01*
X289124Y268474D02*
X289134Y268464D01*
X327874Y258465D02*
X329134Y257205D01*
X319134Y258465D02*
X327874D01*
X329134Y240955D02*
X334124D01*
X336634Y243464D01*
Y255964D01*
X335384Y257214D02*
X336634Y255964D01*
X329144Y257214D02*
X335384D01*
X329134Y257205D02*
X329144Y257214D01*
X329134Y218455D02*
Y233474D01*
X311634Y243464D02*
X316634Y248464D01*
X319134D01*
X198634Y10965D02*
Y21224D01*
X208634Y10965D02*
Y21224D01*
X218384Y11214D02*
Y20974D01*
Y11214D02*
X218634Y10965D01*
X198634Y28705D02*
X198884Y28455D01*
X188124Y28705D02*
X198634D01*
X179134Y19715D02*
X188124Y28705D01*
X179134Y11464D02*
Y19715D01*
X178634Y10965D02*
X179134Y11464D01*
X242874Y28455D02*
X250384Y35965D01*
Y42715D01*
X242874Y14724D02*
Y28455D01*
Y14724D02*
X246634Y10965D01*
X250134D01*
X250384Y10714D01*
Y52715D02*
X255384Y47714D01*
Y47214D02*
Y47714D01*
Y34714D02*
Y38464D01*
X250384Y29715D02*
X255384Y34714D01*
X250384Y20715D02*
Y29715D01*
X260384Y20715D02*
Y29715D01*
X265384Y34714D01*
Y38464D01*
X260384Y52715D02*
X265384Y47714D01*
X270384Y20965D02*
Y29965D01*
X275384Y34964D01*
Y38715D01*
X270384Y52965D02*
X275384Y47965D01*
X260384Y35965D02*
Y42715D01*
X270384Y35965D02*
Y42715D01*
X122884Y318955D02*
X128644Y324714D01*
X136124D02*
X142384Y318455D01*
Y300714D02*
Y318455D01*
X20384Y144714D02*
X87884Y212214D01*
X112134D01*
Y206715D02*
Y218974D01*
X28384Y72974D02*
X34644Y66715D01*
X28384Y72974D02*
Y96715D01*
X42124Y66715D02*
X48384Y72974D01*
Y96715D01*
X10644Y54715D02*
Y66384D01*
X10644Y54715D02*
X10644Y54715D01*
X65384Y18714D02*
X83644D01*
Y12705D02*
Y18714D01*
Y12705D02*
X85634Y10714D01*
X115384D01*
X14384Y75045D02*
Y98715D01*
X22884Y107214D01*
X37884D01*
X48384Y96715D01*
X18124Y66384D02*
X19964D01*
X45384Y40964D01*
Y18714D02*
Y40964D01*
X17884Y54715D02*
X18124D01*
X116634Y24714D02*
X125384D01*
X139134Y10965D02*
X178634D01*
X125384Y24714D02*
X139134Y10965D01*
X164134Y241063D02*
Y250964D01*
X166634Y253465D01*
X161644Y229714D02*
Y233455D01*
X155384Y239715D02*
X161644Y233455D01*
X145384Y239715D02*
X155384D01*
X18124Y44955D02*
Y54715D01*
X17884Y44714D02*
X18124Y44955D01*
X91124Y18714D02*
Y25224D01*
X85384Y30964D02*
X91124Y25224D01*
X71634Y142215D02*
X76634Y147214D01*
X96634D01*
X105384Y155965D01*
X123634D01*
X130384Y162715D01*
X76634Y30964D02*
X85384D01*
X71634Y35965D02*
X76634Y30964D01*
X71634Y35965D02*
Y142215D01*
X188634Y10965D02*
X194884Y4715D01*
X264384D02*
X270384Y10714D01*
X194884Y4715D02*
X264384D01*
X188634Y6714D02*
Y10965D01*
X186634Y4715D02*
X188634Y6714D01*
X59134Y4715D02*
X186634D01*
X55384Y8465D02*
X59134Y4715D01*
X55384Y8465D02*
Y40964D01*
X34644Y61705D02*
Y66715D01*
Y61705D02*
X55384Y40964D01*
X231634Y28455D02*
Y28464D01*
X198884Y28455D02*
X242874D01*
X171634Y43464D02*
X175384Y47214D01*
Y57214D02*
X179134Y60965D01*
X319134Y77214D02*
Y177215D01*
X169134Y43464D02*
X171634D01*
X179134Y60965D02*
X302884D01*
X319134Y77214D01*
X250384Y172714D02*
X256134Y178464D01*
X272884D02*
X276634Y174715D01*
Y170965D02*
Y174715D01*
X256134Y178464D02*
X272884D01*
X276634Y170965D02*
X282884Y164715D01*
Y157214D02*
Y164715D01*
X146634Y249714D02*
X155374D01*
X155384Y249724D01*
X282884Y130965D02*
X290384Y138464D01*
X299134D01*
X324134Y122214D02*
X329134Y127215D01*
X346634D01*
X344134Y98465D02*
X360384D01*
X366634Y104715D01*
Y135965D01*
X360384Y142215D02*
X366634Y135965D01*
X284134Y57214D02*
X304134D01*
X315384Y63464D02*
X372884D01*
X289134Y53465D02*
X305384D01*
X315384Y63464D01*
X360384Y182214D02*
X367884Y189715D01*
X332884Y268464D02*
X367884Y233465D01*
Y189715D02*
Y233465D01*
X151634Y229705D02*
Y229714D01*
X104134Y234455D02*
Y253465D01*
X144134Y229714D02*
X151634D01*
X157884Y279714D02*
Y284715D01*
X200384Y240974D02*
X201634Y242224D01*
X200384Y215965D02*
Y240974D01*
X232884Y217214D02*
X236634Y213464D01*
X253465Y204045D02*
Y209724D01*
X260384Y335964D02*
X270384Y345965D01*
X260384Y324714D02*
Y335964D01*
X224134Y153464D02*
Y158465D01*
X301634Y104715D02*
X305384D01*
X282884Y123465D02*
X301634Y104715D01*
Y97215D02*
X305384D01*
X282884Y115964D02*
X301634Y97215D01*
X282884Y107214D02*
X305384Y84715D01*
Y77214D02*
X306634D01*
X305384D02*
Y84715D01*
X264134Y102215D02*
Y113464D01*
X279134Y92215D02*
Y100964D01*
Y92215D02*
X299134Y72215D01*
X317884Y55964D02*
X326634D01*
X344134Y38464D01*
X350384Y304714D02*
X366634D01*
X340384Y314715D02*
X350384Y304714D01*
X340384Y314715D02*
Y324714D01*
X224134Y153464D02*
X264134Y113464D01*
X201634Y259715D02*
X211634Y249714D01*
X342884Y197214D02*
Y247215D01*
X314134Y67215D02*
X366634D01*
X375384Y75964D01*
Y167215D01*
X344134Y38464D02*
X361309D01*
X375747Y52903D02*
X380059Y57214D01*
X361309Y38464D02*
X379011Y56166D01*
X380059Y57214D02*
Y291289D01*
D17*
X40625Y237500D02*
X51250Y226875D01*
Y208750D02*
Y226875D01*
X33125Y190625D02*
X51250Y208750D01*
X50384Y247259D02*
Y298714D01*
X40625Y237500D02*
X50384Y247259D01*
D18*
X314134Y182214D02*
X325384D01*
X237884Y253465D02*
X245384D01*
X255384Y38464D02*
Y47214D01*
X265384Y38464D02*
Y47214D01*
X275384Y38715D02*
Y47464D01*
X260384Y34714D02*
Y35965D01*
X255384Y15714D02*
X260384Y10714D01*
X255384Y15714D02*
Y29715D01*
X260384Y34714D01*
X265384Y29715D02*
X270384Y34714D01*
X265384Y15714D02*
Y29715D01*
Y15714D02*
X270384Y10714D01*
X90384Y18464D02*
X90874D01*
X91124Y18714D01*
X175384Y47214D02*
Y57214D01*
X346634Y127215D02*
X354134D01*
X359134Y132214D01*
X360384D01*
D19*
X138750Y281250D02*
D03*
X131250Y288750D02*
D03*
X123750Y281250D02*
D03*
X142384Y300714D02*
D03*
X132384D02*
D03*
X122384D02*
D03*
D20*
X500625Y155000D02*
D03*
X570625Y345000D02*
D03*
X484625D02*
D03*
X520625Y155000D02*
D03*
D21*
X470625D02*
D03*
X460625D02*
D03*
X450625D02*
D03*
X440625D02*
D03*
X430625D02*
D03*
X490625D02*
D03*
X480625D02*
D03*
X540625Y345000D02*
D03*
X530625D02*
D03*
X520625D02*
D03*
X510625D02*
D03*
X500625D02*
D03*
X560625D02*
D03*
X550625D02*
D03*
X474625D02*
D03*
X464625D02*
D03*
X454625D02*
D03*
X444625D02*
D03*
X434625D02*
D03*
X424625D02*
D03*
X414625D02*
D03*
X404625D02*
D03*
X394625D02*
D03*
X530625Y155000D02*
D03*
X540625D02*
D03*
X550625D02*
D03*
X560625D02*
D03*
X570625D02*
D03*
D22*
X181625Y311250D02*
D03*
X82125D02*
D03*
X93125Y237500D02*
D03*
Y272500D02*
D03*
X33125D02*
D03*
X93125Y190625D02*
D03*
Y225625D02*
D03*
X33125D02*
D03*
D23*
Y237500D02*
D03*
Y190625D02*
D03*
D24*
X20321Y294714D02*
D03*
D25*
X8510Y314400D02*
D03*
X32919D02*
D03*
D26*
X182884Y223464D02*
D03*
X177884D02*
D03*
D27*
X190384Y243464D02*
D03*
X274134D02*
D03*
D28*
X180384Y253465D02*
D03*
X264134D02*
D03*
X274134Y263464D02*
D03*
X270384Y42715D02*
D03*
Y52715D02*
D03*
X260384Y42715D02*
D03*
Y52715D02*
D03*
X250384Y42715D02*
D03*
Y52715D02*
D03*
X240384Y42715D02*
D03*
Y52715D02*
D03*
X230384Y42715D02*
D03*
Y52715D02*
D03*
X220384Y42715D02*
D03*
Y52715D02*
D03*
X210384Y42715D02*
D03*
Y52715D02*
D03*
X200384Y42715D02*
D03*
Y52715D02*
D03*
X190384Y42715D02*
D03*
Y52715D02*
D03*
X180384Y42715D02*
D03*
Y52715D02*
D03*
X170384Y42715D02*
D03*
Y52715D02*
D03*
X160384Y42715D02*
D03*
Y52715D02*
D03*
X150384Y42715D02*
D03*
Y52715D02*
D03*
X140384Y42715D02*
D03*
Y52715D02*
D03*
X130384Y42715D02*
D03*
Y52715D02*
D03*
X120384Y42715D02*
D03*
Y52715D02*
D03*
X110384Y42715D02*
D03*
Y52715D02*
D03*
X100384Y42715D02*
D03*
Y52715D02*
D03*
X90384Y42715D02*
D03*
Y52715D02*
D03*
X80384Y42715D02*
D03*
X90384Y152715D02*
D03*
X80384D02*
D03*
X90384Y122714D02*
D03*
X80384D02*
D03*
Y112715D02*
D03*
Y102715D02*
D03*
X90384Y92715D02*
D03*
X80384D02*
D03*
X90384Y82714D02*
D03*
X80384D02*
D03*
X90384Y72715D02*
D03*
X80384D02*
D03*
X90384Y62714D02*
D03*
X80384Y172714D02*
D03*
Y162715D02*
D03*
X90384Y172714D02*
D03*
Y162715D02*
D03*
X100384Y172714D02*
D03*
Y162715D02*
D03*
X110384Y172714D02*
D03*
Y162715D02*
D03*
X120384Y172714D02*
D03*
Y162715D02*
D03*
X130384Y172714D02*
D03*
Y162715D02*
D03*
X140384Y172714D02*
D03*
Y162715D02*
D03*
X150384Y172714D02*
D03*
Y162715D02*
D03*
X160384Y172714D02*
D03*
Y162715D02*
D03*
X170384Y172714D02*
D03*
Y162715D02*
D03*
X180384Y172714D02*
D03*
Y162715D02*
D03*
X190384Y172714D02*
D03*
Y162715D02*
D03*
X200384D02*
D03*
X210384D02*
D03*
X230384Y172714D02*
D03*
X240384D02*
D03*
Y162715D02*
D03*
X250384Y172714D02*
D03*
Y162715D02*
D03*
X260384Y172714D02*
D03*
Y162715D02*
D03*
X270384Y172714D02*
D03*
D29*
X187884Y223464D02*
D03*
D30*
X119134Y242372D02*
D03*
Y262057D02*
D03*
D31*
X211634Y268464D02*
D03*
X178634Y10965D02*
D03*
X270384Y20715D02*
D03*
X289134Y268464D02*
D03*
Y207214D02*
D03*
D32*
X211634Y258465D02*
D03*
Y248464D02*
D03*
Y238464D02*
D03*
X241634Y268464D02*
D03*
Y258465D02*
D03*
Y248464D02*
D03*
Y238464D02*
D03*
X218634Y10965D02*
D03*
X208634D02*
D03*
X198634D02*
D03*
X188634D02*
D03*
X270384Y10714D02*
D03*
X260384Y20715D02*
D03*
Y10714D02*
D03*
X250384Y20715D02*
D03*
Y10714D02*
D03*
X319134Y238464D02*
D03*
Y248464D02*
D03*
Y258465D02*
D03*
Y268464D02*
D03*
X289134Y238464D02*
D03*
Y248464D02*
D03*
Y258465D02*
D03*
X319134Y177215D02*
D03*
Y187215D02*
D03*
Y197214D02*
D03*
Y207214D02*
D03*
X289134Y177215D02*
D03*
Y187215D02*
D03*
Y197214D02*
D03*
D33*
X50384Y318714D02*
D03*
D34*
Y298714D02*
D03*
D35*
X80384Y52715D02*
D03*
Y62714D02*
D03*
X270384Y162715D02*
D03*
D36*
X195384Y197214D02*
D03*
X180384D02*
D03*
D37*
X430384Y257715D02*
D03*
Y247714D02*
D03*
X440384Y257715D02*
D03*
Y247714D02*
D03*
X450384Y257715D02*
D03*
Y247714D02*
D03*
X460384Y257715D02*
D03*
Y247714D02*
D03*
X470384Y257715D02*
D03*
Y247714D02*
D03*
X480384Y257715D02*
D03*
Y247714D02*
D03*
X490384Y257715D02*
D03*
Y247714D02*
D03*
X500384Y257715D02*
D03*
Y247714D02*
D03*
X510384Y257715D02*
D03*
Y247714D02*
D03*
X520384Y257715D02*
D03*
Y247714D02*
D03*
X530384Y257715D02*
D03*
Y247714D02*
D03*
X540384Y257715D02*
D03*
Y247714D02*
D03*
X550384Y257715D02*
D03*
X350384Y232214D02*
D03*
X360384D02*
D03*
X350384Y222215D02*
D03*
X360384D02*
D03*
X350384Y212214D02*
D03*
X360384D02*
D03*
X350384Y202215D02*
D03*
X360384D02*
D03*
X350384Y192215D02*
D03*
X360384D02*
D03*
X350384Y182214D02*
D03*
X360384D02*
D03*
X350384Y172214D02*
D03*
X360384D02*
D03*
X350384Y162215D02*
D03*
X360384D02*
D03*
X350384Y152215D02*
D03*
X360384D02*
D03*
X350384Y142215D02*
D03*
X360384D02*
D03*
X350384Y132214D02*
D03*
X360384D02*
D03*
X350384Y122214D02*
D03*
X360384D02*
D03*
X350384Y112215D02*
D03*
D38*
X550384Y247714D02*
D03*
D39*
X360384Y112215D02*
D03*
D40*
X48384Y96715D02*
D03*
X28384D02*
D03*
X45384Y18714D02*
D03*
X65384D02*
D03*
X240384Y324714D02*
D03*
X220384D02*
D03*
X20384Y164715D02*
D03*
Y144714D02*
D03*
X280384Y324714D02*
D03*
X260384D02*
D03*
X300384D02*
D03*
X320384D02*
D03*
X331634Y18464D02*
D03*
X351634D02*
D03*
X340384Y324714D02*
D03*
X360384D02*
D03*
D41*
X585384Y251730D02*
D03*
X395384D02*
D03*
X356368Y77214D02*
D03*
Y267214D02*
D03*
D42*
X418750Y332500D02*
D03*
X417500Y302500D02*
D03*
Y312500D02*
D03*
Y323750D02*
D03*
X427500Y332500D02*
D03*
X484625Y302500D02*
D03*
X475000Y308750D02*
D03*
X465000Y315000D02*
D03*
X455000Y320000D02*
D03*
X445000Y326250D02*
D03*
X435000Y332500D02*
D03*
X372884Y63464D02*
D03*
X342884Y282214D02*
D03*
Y247215D02*
D03*
Y197214D02*
D03*
X317884Y55964D02*
D03*
X299134Y72215D02*
D03*
X279134Y100964D02*
D03*
X264134Y102215D02*
D03*
X282884Y107214D02*
D03*
Y115964D02*
D03*
Y123465D02*
D03*
X224134Y158465D02*
D03*
X270384Y345965D02*
D03*
X157884Y284715D02*
D03*
X104134Y253465D02*
D03*
X156634Y272215D02*
D03*
X144134Y229714D02*
D03*
X281634Y45965D02*
D03*
Y54715D02*
D03*
X305384Y77214D02*
D03*
Y97215D02*
D03*
Y104715D02*
D03*
X344134Y98465D02*
D03*
X324134Y122214D02*
D03*
X282884Y130965D02*
D03*
X299134Y138464D02*
D03*
X146634Y249714D02*
D03*
X282884Y157214D02*
D03*
X17884Y44714D02*
D03*
X140384Y267214D02*
D03*
X166634Y253465D02*
D03*
X144134Y222215D02*
D03*
X157884Y198465D02*
D03*
X200384Y222215D02*
D03*
X261634D02*
D03*
X231634Y248464D02*
D03*
X195384Y279714D02*
D03*
X266634Y228465D02*
D03*
X276634Y214715D02*
D03*
X300394Y290955D02*
D03*
X194134Y314715D02*
D03*
X230384Y298464D02*
D03*
X234134Y287214D02*
D03*
X277884Y229714D02*
D03*
X241634Y200964D02*
D03*
X224134D02*
D03*
X187884Y204714D02*
D03*
X307884Y229714D02*
D03*
X297884D02*
D03*
X216634Y200964D02*
D03*
Y158465D02*
D03*
X290384Y72215D02*
D03*
X312884Y97215D02*
D03*
X326634D02*
D03*
X369134Y160965D02*
D03*
X374134Y179715D02*
D03*
X319134Y277215D02*
D03*
M02*
