%FSLAX25Y25*%
%MOIN*%
G70*
G01*
G75*
G04 Layer_Color=8421504*
%ADD10R,0.05118X0.05906*%
%ADD11R,0.05118X0.03347*%
%ADD12R,0.06000X0.06000*%
%ADD13R,0.03347X0.05118*%
%ADD14R,0.02362X0.05118*%
%ADD15R,0.05906X0.05118*%
%ADD16C,0.02500*%
%ADD17C,0.10000*%
%ADD18C,0.01500*%
%ADD19O,0.07087X0.08661*%
%ADD20R,0.06000X0.06000*%
%ADD21C,0.06000*%
%ADD22C,0.07874*%
%ADD23R,0.07874X0.07874*%
%ADD24O,0.15748X0.07874*%
%ADD25O,0.07874X0.17716*%
%ADD26O,0.03000X0.07874*%
%ADD27R,0.06299X0.06299*%
%ADD28C,0.06299*%
%ADD29O,0.03000X0.07874*%
%ADD30C,0.07087*%
%ADD31R,0.05906X0.05906*%
%ADD32C,0.05906*%
%ADD33R,0.07284X0.07284*%
%ADD34C,0.07284*%
%ADD35R,0.06299X0.06299*%
%ADD36C,0.08661*%
%ADD37C,0.06496*%
%ADD38R,0.06496X0.06496*%
%ADD39R,0.06496X0.06496*%
%ADD40C,0.11811*%
%ADD41C,0.09843*%
%ADD42C,0.05000*%
%ADD43R,0.00787X0.00787*%
%ADD44C,0.08000*%
%ADD45C,0.00787*%
%ADD46C,0.01000*%
%ADD47C,0.00984*%
%ADD48C,0.02362*%
%ADD49R,0.01181X0.08268*%
%ADD50R,0.08268X0.01181*%
%ADD51C,0.05906*%
%ADD52C,0.01969*%
%ADD53C,0.03937*%
%ADD54C,0.02000*%
%ADD55C,0.00500*%
%ADD56C,0.00700*%
%ADD57C,0.03000*%
%ADD58C,0.00800*%
%ADD59C,0.00591*%
%ADD60R,0.20000X0.25000*%
%ADD61R,0.06102X0.16142*%
D10*
X165394Y279714D02*
D03*
X172874D02*
D03*
X206644D02*
D03*
X214124D02*
D03*
X281644Y289715D02*
D03*
X289124D02*
D03*
X207874Y214715D02*
D03*
X200394D02*
D03*
X222894Y279714D02*
D03*
X230374D02*
D03*
X136124Y324714D02*
D03*
X128644D02*
D03*
X240374Y224714D02*
D03*
X232894D02*
D03*
X246624Y279714D02*
D03*
X239144D02*
D03*
X161644Y219714D02*
D03*
X169124D02*
D03*
X169124Y229714D02*
D03*
X161644D02*
D03*
X83644Y18714D02*
D03*
X91124D02*
D03*
X34644Y66715D02*
D03*
X42124D02*
D03*
X10644Y54715D02*
D03*
X18124D02*
D03*
X281644Y279714D02*
D03*
X289124D02*
D03*
X224124Y214715D02*
D03*
X216644D02*
D03*
X169124Y209715D02*
D03*
X161644D02*
D03*
X290394Y223464D02*
D03*
X297874D02*
D03*
X307894D02*
D03*
X315374D02*
D03*
X216644Y224714D02*
D03*
X224124D02*
D03*
X307874Y279714D02*
D03*
X300394D02*
D03*
D11*
X253465Y209724D02*
D03*
X244803Y213464D02*
D03*
X253465Y217205D02*
D03*
D12*
X112134Y193214D02*
D03*
Y206715D02*
D03*
X115384Y24215D02*
D03*
Y10714D02*
D03*
D13*
X10644Y66384D02*
D03*
X14384Y75045D02*
D03*
X18124Y66384D02*
D03*
D14*
X169134Y265866D02*
D03*
X164134Y241063D02*
D03*
X169134D02*
D03*
X164134Y265866D02*
D03*
D15*
X218384Y28455D02*
D03*
Y20974D02*
D03*
X198634Y28705D02*
D03*
Y21224D02*
D03*
X208634Y28705D02*
D03*
Y21224D02*
D03*
X329134Y249724D02*
D03*
Y257205D02*
D03*
X151634Y229705D02*
D03*
Y222224D02*
D03*
X329134Y218455D02*
D03*
Y210974D02*
D03*
X112134Y226455D02*
D03*
Y218974D02*
D03*
X251634Y240974D02*
D03*
Y248455D02*
D03*
Y264705D02*
D03*
Y257224D02*
D03*
Y232205D02*
D03*
Y224724D02*
D03*
X155384Y249724D02*
D03*
Y257205D02*
D03*
X329134Y233474D02*
D03*
Y240955D02*
D03*
X201634Y268455D02*
D03*
Y260974D02*
D03*
Y249705D02*
D03*
Y242224D02*
D03*
M02*
