M48
;Layer_Color=10053120
;FILE_FORMAT=2:5
INCH
;TYPE=PLATED
T1F00S00C0.02362
T2F00S00C0.02800
T3F00S00C0.03150
T4F00S00C0.03543
T5F00S00C0.03937
T6F00S00C0.05118
T7F00S00C0.07874
T8F00S00C0.09843
T9F00S00C0.15748
;TYPE=NON_PLATED
T10F00S00C0.11024
%
T01
X0372884Y0063464
X0369134Y0160965
X0324134Y0122214
X0326634Y0097215
X0312884
X0305384
Y0104715
X0282884Y0107214
Y0115964
Y0123465
Y0130965
X0299134Y0138464
X0282884Y0157214
X0279134Y0100964
X0264134Y0102215
X0290384Y0072215
X0299134
X0305384Y0077214
X0317884Y0055964
X0281634Y0054715
Y0045965
X0344134Y0098465
X0224134Y0158465
X0216634
X0017884Y0044714
X0157884Y0198465
X0187884Y0204714
X0200384Y0222215
X0144134
Y0229714
X0146634Y0249714
X0140384Y0267214
X0156634Y0272215
X0157884Y0284715
X0166634Y0253465
X0195384Y0279714
X0194134Y0314715
X0104134Y0253465
X0231634Y0248464
X0234134Y0287214
X0230384Y0298464
X0300394Y0290955
X0319134Y0277215
X0342884Y0282214
Y0247215
Y0197214
X0307884Y0229714
X0297884
X0277884
X0266634Y0228465
X0261634Y0222215
X0276634Y0214715
X0241634Y0200964
X0224134
X0216634
X0374134Y0179715
X0270384Y0345965
T02
X0417500Y0302500
Y0312500
X0455000Y0320000
X0465000Y0315000
X0475000Y0308750
X0484625Y0302500
X0445000Y0326250
X0435000Y0332500
X0427500
X0418750
X0417500Y0323750
T03
X0177884Y0223464
X0182884
X0187884
X0190384Y0243464
X0180384Y0253465
X0190384Y0263464
X0264134Y0253465
X0274134Y0243464
Y0263464
T04
X0250384Y0010714
X0260384
X0270384
X0530625Y0155000
X0540625
X0550625
X0560625
X0570625
X0520625
X0500625
X0490625
X0480625
X0470625
X0460625
X0450625
X0440625
X0430625
X0270384Y0162715
X0260384
X0250384
X0240384
X0230384
X0220384
Y0052715
X0230384
X0240384
X0250384
X0260384
X0270384
Y0042715
X0260384
X0250384
X0240384
X0230384
X0220384
X0218634Y0010965
X0250384Y0020715
X0260384
X0270384
X0208634Y0010965
X0198634
X0188634
X0178634
X0180384Y0042715
X0190384
X0200384
X0210384
Y0052715
X0200384
X0190384
X0180384
X0170384
Y0042715
X0160384
Y0052715
X0150384
Y0042715
X0140384
Y0052715
X0130384
Y0042715
X0120384
Y0052715
X0110384
Y0042715
X0100384
Y0052715
X0090384
Y0042715
X0080384
Y0052715
Y0062714
Y0072715
Y0082714
Y0092715
Y0102715
Y0112715
Y0122714
Y0132714
Y0142715
Y0152715
X0090384
Y0142715
Y0132714
Y0122714
Y0112715
Y0102715
Y0092715
Y0082714
Y0072715
Y0062714
Y0162715
X0080384
X0100384
X0110384
X0120384
X0130384
X0140384
X0150384
X0160384
X0170384
X0180384
X0190384
X0200384
X0210384
X0033125Y0190625
Y0225625
Y0237500
Y0272500
X0050384Y0298714
Y0318714
X0093125Y0272500
Y0237500
Y0225625
Y0190625
X0090384Y0172714
X0080384
X0100384
X0110384
X0120384
X0130384
X0140384
X0150384
X0160384
X0170384
X0180384
X0190384
X0200384
X0210384
X0211634Y0238464
Y0248464
Y0258465
Y0268464
X0119134Y0262057
Y0242372
X0241634Y0238464
Y0248464
Y0258465
Y0268464
X0289134
Y0258465
Y0248464
Y0238464
X0319134
Y0248464
Y0258465
Y0268464
Y0207214
Y0197214
Y0187215
Y0177215
X0289134
Y0187215
Y0197214
Y0207214
X0270384Y0172714
X0260384
X0250384
X0240384
X0230384
X0220384
X0530625Y0345000
X0540625
X0550625
X0560625
X0570625
X0520625
X0510625
X0500625
X0484625
X0474625
X0464625
X0454625
X0444625
X0434625
X0424625
X0414625
X0404625
X0394625
T05
X0350384Y0112215
Y0122214
Y0132214
Y0142215
Y0152215
Y0162215
X0360384
Y0152215
Y0142215
Y0132214
Y0122214
Y0112215
X0048384Y0096715
X0028384
X0180384Y0197214
X0195384
X0138750Y0281250
X0131250Y0288750
X0132384Y0300714
X0142384
X0122384
X0123750Y0281250
X0350384Y0232214
X0360384
Y0222215
X0350384
Y0212214
X0360384
Y0202215
X0350384
Y0192215
X0360384
Y0182214
X0350384
Y0172214
X0360384
X0430384Y0247714
Y0257715
X0440384
Y0247714
X0450384
Y0257715
X0460384
Y0247714
X0470384
Y0257715
X0480384
Y0247714
X0490384
Y0257715
X0500384
Y0247714
X0510384
Y0257715
X0520384
Y0247714
X0530384
Y0257715
X0540384
Y0247714
X0550384
Y0257715
T06
X0331634Y0018464
X0351634
X0065384Y0018714
X0045384
X0020384Y0144714
Y0164715
X0220384Y0324714
X0240384
X0260384
X0280384
X0300384
X0320384
X0340384
X0360384
T07
X0020321Y0294714
X0008510Y0314400
X0032919
T08
X0082125Y0311250
X0181625
T09
X0357884Y0052214
X0020384Y0014715
X0360384Y0290965
X0022884Y0343464
T10
X0356368Y0077214
Y0267214
X0395384Y0251730
X0585384
M30
